<?xml version="1.0" encoding="UTF-8" standalone="no"?>
<svg
   xmlns:dc="http://purl.org/dc/elements/1.1/"
   xmlns:cc="http://creativecommons.org/ns#"
   xmlns:rdf="http://www.w3.org/1999/02/22-rdf-syntax-ns#"
   xmlns:svg="http://www.w3.org/2000/svg"
   xmlns="http://www.w3.org/2000/svg"
   xmlns:sodipodi="http://sodipodi.sourceforge.net/DTD/sodipodi-0.dtd"
   xmlns:inkscape="http://www.inkscape.org/namespaces/inkscape"
   width="15.875mm"
   height="5.1767497mm"
   viewBox="0 0 15.875 5.1767497"
   version="1.1"
   id="svg1888"
   inkscape:version="1.0.1 (c497b03c, 2020-09-10)"
   sodipodi:docname="gray-media.svg">
  <defs
     id="defs1882" />
  <sodipodi:namedview
     id="base"
     pagecolor="#ffffff"
     bordercolor="#666666"
     borderopacity="1.0"
     inkscape:pageopacity="0.0"
     inkscape:pageshadow="2"
     inkscape:zoom="6.40548"
     inkscape:cx="8.4653797"
     inkscape:cy="35.134406"
     inkscape:document-units="mm"
     inkscape:current-layer="layer1"
     inkscape:document-rotation="0"
     showgrid="false"
     inkscape:window-width="1252"
     inkscape:window-height="971"
     inkscape:window-x="0"
     inkscape:window-y="211"
     inkscape:window-maximized="0" />
  <metadata
     id="metadata1885">
    <rdf:RDF>
      <cc:Work
         rdf:about="">
        <dc:format>image/svg+xml</dc:format>
        <dc:type
           rdf:resource="http://purl.org/dc/dcmitype/StillImage" />
        <dc:title />
      </cc:Work>
    </rdf:RDF>
  </metadata>
  <g
     inkscape:groupmode="layer"
     id="layer2"
     inkscape:label="Layer 2"
     style="display:none"
     transform="translate(-7.805205,1.9357149)">
    <rect
       style="display:inline;fill:#000000;stroke-width:0.226627;stroke-linecap:round;stroke-linejoin:round;stroke-miterlimit:10"
       id="rect2461"
       width="60.471661"
       height="29.626997"
       x="-15.386123"
       y="-9.5037279"
       ry="6.8264742" />
  </g>
  <g
     inkscape:label="Layer 1"
     inkscape:groupmode="layer"
     id="layer1"
     transform="translate(-97.89583,-6.6967511)"
     style="display:inline">
    <path
       id="Path_3"
       data-name="Path 3"
       d="M 98.758816,11.873501 V 9.210635 h 14.236554 v 2.662866"
       fill="none"
       stroke="#707070"
       stroke-width="0.133403" />
    <path
       id="Polygon_3"
       data-name="Polygon 3"
       d="M 98.696251,11.873501 97.89583,10.539466 h 1.600841 z"
       fill="#707070"
       style="stroke-width:0.133403" />
    <path
       id="Polygon_4"
       data-name="Polygon 4"
       d="M 112.97042,11.873501 112.17,10.539466 h 1.60083 z"
       fill="#707070"
       style="stroke-width:0.133403" />
    <g
       aria-label="compound"
       id="compound"
       style="font-weight:300;font-size:3.00156px;font-family:Nobel-Light, Nobel;fill:#707070;stroke-width:0.300157">
      <path
         d="m 101.43914,8.6267541 q -0.081,0.1260656 -0.21011,0.2131108 -0.12907,0.084044 -0.30316,0.084044 -0.12907,0 -0.24013,-0.048025 -0.10805,-0.051027 -0.18909,-0.1380717 -0.078,-0.087045 -0.12307,-0.2041061 -0.045,-0.1170609 -0.045,-0.2521311 0,-0.1320686 0.045,-0.2461279 0.045,-0.1170608 0.12307,-0.2011045 0.081,-0.087045 0.18909,-0.1350702 0.10806,-0.051026 0.23112,-0.051026 0.0991,0 0.1771,0.021011 0.078,0.021011 0.13807,0.054028 0.06,0.033017 0.10505,0.075039 0.048,0.042022 0.0811,0.081042 l -0.0991,0.078041 q -0.072,-0.090047 -0.16508,-0.1410733 -0.093,-0.054028 -0.21912,-0.054028 -0.10505,0 -0.1951,0.042022 -0.087,0.03902 -0.15008,0.1110577 -0.063,0.069036 -0.0991,0.1620843 -0.033,0.093048 -0.033,0.1981029 0,0.1080562 0.033,0.2071077 0.036,0.09605 0.0961,0.1710889 0.063,0.072037 0.14708,0.1140593 0.084,0.042022 0.18309,0.042022 0.14408,0 0.24613,-0.066034 0.10206,-0.066034 0.1801,-0.1800936 l 0.096,0.063033 z"
         style="stroke-width:0.300157"
         id="path845" />
      <path
         d="m 102.88509,8.2845763 q 0,0.1410733 -0.051,0.2581342 -0.048,0.1170608 -0.13507,0.204106 -0.087,0.084044 -0.2041,0.1320687 -0.11406,0.045023 -0.24613,0.045023 -0.13207,0 -0.24913,-0.045023 -0.11406,-0.048025 -0.2011,-0.1320687 -0.0871,-0.087045 -0.13808,-0.204106 -0.048,-0.1170609 -0.048,-0.2581342 0,-0.1410733 0.048,-0.2581342 0.051,-0.1170608 0.13808,-0.2011045 0.087,-0.084044 0.2011,-0.129067 0.11706,-0.048025 0.24913,-0.048025 0.13207,0 0.24613,0.048025 0.11706,0.045023 0.2041,0.129067 0.0871,0.084044 0.13507,0.2011045 0.051,0.1170609 0.051,0.2581342 z m -0.12907,0 q 0,-0.1140593 -0.039,-0.2101092 -0.039,-0.09605 -0.10805,-0.1650858 -0.066,-0.069036 -0.15909,-0.1080561 -0.093,-0.03902 -0.2011,-0.03902 -0.10806,0 -0.2011,0.03902 -0.093,0.03902 -0.16209,0.1080561 -0.066,0.069036 -0.10505,0.1650858 -0.039,0.09605 -0.039,0.2101092 0,0.1140593 0.039,0.2101092 0.039,0.09605 0.10505,0.1680874 0.069,0.069036 0.16209,0.1080561 0.093,0.03902 0.2011,0.03902 0.10806,0 0.2011,-0.03902 0.0931,-0.03902 0.15909,-0.1080561 0.069,-0.072038 0.10805,-0.1680874 0.039,-0.09605 0.039,-0.2101092 z"
         style="stroke-width:0.300157"
         id="path847" />
      <path
         d="M 104.78278,8.8878899 V 8.0924765 q 0,-0.1440749 -0.069,-0.2401248 -0.069,-0.09605 -0.2041,-0.09605 -0.0841,0 -0.15908,0.033017 -0.072,0.033017 -0.12907,0.087045 -0.054,0.054028 -0.0871,0.1260655 -0.03,0.069036 -0.03,0.1440748 v 0.7413854 h -0.12307 V 8.0924765 q 0,-0.1440749 -0.063,-0.2401248 -0.06,-0.09605 -0.21011,-0.09605 -0.084,0 -0.15908,0.033017 -0.072,0.033017 -0.12907,0.090047 -0.054,0.054028 -0.087,0.1260655 -0.03,0.069036 -0.03,0.1440749 v 0.7383838 h -0.12306 V 7.6842643 h 0.12306 v 0.198103 q 0.054,-0.1050546 0.16209,-0.1680874 0.10805,-0.066034 0.24312,-0.066034 0.15608,0 0.24613,0.069036 0.09,0.066034 0.12306,0.1740905 0.063,-0.1050546 0.1801,-0.1740905 0.11706,-0.069036 0.25213,-0.069036 0.1981,0 0.29715,0.123064 0.099,0.1230639 0.099,0.3031575 v 0.8134228 z"
         style="stroke-width:0.300157"
         id="path849" />
      <path
         d="m 106.43744,8.2785732 q 0,0.1530795 -0.048,0.2731419 -0.045,0.1170609 -0.12606,0.2011046 -0.0811,0.084044 -0.1891,0.129067 -0.10806,0.042022 -0.22812,0.042022 -0.078,0 -0.15008,-0.024013 -0.072,-0.024012 -0.13207,-0.063033 -0.057,-0.03902 -0.10205,-0.090047 -0.042,-0.054028 -0.066,-0.1080561 v 0.7864087 h -0.12307 V 7.6842643 h 0.12307 v 0.2491295 q 0.024,-0.054028 0.072,-0.1050546 0.048,-0.054028 0.11106,-0.093048 0.063,-0.03902 0.13807,-0.063033 0.075,-0.024012 0.15608,-0.024012 0.13207,0 0.23713,0.051026 0.10505,0.051026 0.17709,0.1380718 0.072,0.087045 0.11106,0.2011045 0.039,0.1140593 0.039,0.2401248 z m -0.12907,0.009 q 0,-0.1050546 -0.03,-0.198103 -0.027,-0.09605 -0.084,-0.1680873 -0.054,-0.072038 -0.13807,-0.1140593 -0.081,-0.045023 -0.1921,-0.045023 -0.10205,0 -0.1891,0.042022 -0.084,0.03902 -0.14708,0.1110577 -0.063,0.072038 -0.099,0.1680874 -0.033,0.09605 -0.033,0.2071076 0,0.099051 0.033,0.1920999 0.033,0.093048 0.0931,0.1680873 0.063,0.072037 0.14708,0.1170609 0.084,0.042022 0.1891,0.042022 0.2041,0 0.32717,-0.1380718 0.12306,-0.1410733 0.12306,-0.3841996 z"
         style="stroke-width:0.300157"
         id="path851" />
      <path
         d="m 107.90919,8.2845763 q 0,0.1410733 -0.051,0.2581342 -0.048,0.1170608 -0.13507,0.204106 -0.0871,0.084044 -0.20411,0.1320687 -0.11406,0.045023 -0.24612,0.045023 -0.13207,0 -0.24913,-0.045023 -0.11406,-0.048025 -0.20111,-0.1320687 -0.087,-0.087045 -0.13807,-0.204106 -0.048,-0.1170609 -0.048,-0.2581342 0,-0.1410733 0.048,-0.2581342 0.051,-0.1170608 0.13807,-0.2011045 0.0871,-0.084044 0.20111,-0.129067 0.11706,-0.048025 0.24913,-0.048025 0.13206,0 0.24612,0.048025 0.11706,0.045023 0.20411,0.129067 0.087,0.084044 0.13507,0.2011045 0.051,0.1170609 0.051,0.2581342 z m -0.12907,0 q 0,-0.1140593 -0.039,-0.2101092 -0.039,-0.09605 -0.10806,-0.1650858 -0.066,-0.069036 -0.15908,-0.1080561 -0.0931,-0.03902 -0.2011,-0.03902 -0.10806,0 -0.20111,0.03902 -0.093,0.03902 -0.16208,0.1080561 -0.066,0.069036 -0.10506,0.1650858 -0.039,0.09605 -0.039,0.2101092 0,0.1140593 0.039,0.2101092 0.039,0.09605 0.10506,0.1680874 0.069,0.069036 0.16208,0.1080561 0.0931,0.03902 0.20111,0.03902 0.10805,0 0.2011,-0.03902 0.093,-0.03902 0.15908,-0.1080561 0.069,-0.072038 0.10806,-0.1680874 0.039,-0.09605 0.039,-0.2101092 z"
         style="stroke-width:0.300157"
         id="path853" />
      <path
         d="m 109.03547,8.8878899 v -0.198103 q -0.057,0.1050546 -0.16508,0.1710889 -0.10506,0.063033 -0.24013,0.063033 -0.10505,0 -0.18909,-0.033017 -0.0841,-0.033017 -0.14108,-0.090047 -0.057,-0.05703 -0.087,-0.1350702 -0.03,-0.078041 -0.03,-0.1680873 V 7.6842643 h 0.12307 v 0.7954134 q 0,0.1440749 0.084,0.2401248 0.087,0.09605 0.24613,0.09605 0.09,0 0.16208,-0.036019 0.075,-0.036019 0.12607,-0.090047 0.054,-0.05703 0.081,-0.1260655 0.03,-0.072038 0.03,-0.1410733 V 7.6842643 h 0.12307 v 1.2036256 z"
         style="stroke-width:0.300157"
         id="path855" />
      <path
         d="M 110.39898,8.8878899 V 8.0924765 q 0,-0.1440749 -0.087,-0.2401248 -0.084,-0.09605 -0.24312,-0.09605 -0.0901,0 -0.16509,0.036019 -0.072,0.036019 -0.12606,0.093048 -0.051,0.054028 -0.081,0.1260656 -0.027,0.069036 -0.027,0.1380717 v 0.7383838 h -0.12306 V 7.6842643 h 0.12306 v 0.198103 q 0.057,-0.1050546 0.16209,-0.1680874 0.10805,-0.066034 0.24312,-0.066034 0.10506,0 0.1891,0.033017 0.084,0.033017 0.14107,0.090047 0.057,0.05703 0.0871,0.1350702 0.03,0.078041 0.03,0.1680873 v 0.8134228 z"
         style="stroke-width:0.300157"
         id="path857" />
      <path
         d="M 111.83452,8.8878899 V 8.6387604 q -0.024,0.054028 -0.072,0.1080561 -0.048,0.051027 -0.11106,0.090047 -0.063,0.03902 -0.13807,0.063033 -0.075,0.024013 -0.15608,0.024013 -0.13207,0 -0.23713,-0.051027 -0.10505,-0.051027 -0.17709,-0.1380718 -0.072,-0.087045 -0.11106,-0.2011045 -0.039,-0.1140593 -0.039,-0.2401248 0,-0.1530796 0.045,-0.2701404 0.048,-0.1200624 0.12906,-0.2041061 0.081,-0.084044 0.1891,-0.1260655 0.10806,-0.045023 0.22812,-0.045023 0.078,0 0.14708,0.024012 0.072,0.024013 0.12906,0.063033 0.06,0.03902 0.10506,0.093048 0.045,0.051026 0.069,0.1050546 V 6.6967511 h 0.12307 v 2.1911388 z m 0,-0.6063152 q 0,-0.099051 -0.033,-0.1920998 -0.033,-0.093048 -0.096,-0.1650858 -0.06,-0.075039 -0.14708,-0.1170608 -0.084,-0.045023 -0.1861,-0.045023 -0.2041,0 -0.32717,0.1410733 -0.12306,0.1380717 -0.12306,0.3811981 0,0.1050546 0.027,0.2011045 0.03,0.093048 0.084,0.1650858 0.057,0.072037 0.13807,0.1170609 0.084,0.042022 0.1951,0.042022 0.10205,0 0.1861,-0.03902 0.087,-0.042022 0.15007,-0.1140593 0.063,-0.072037 0.0961,-0.1680873 0.036,-0.09605 0.036,-0.2071077 z"
         style="stroke-width:0.300157"
         id="path859" />
    </g>
  </g>
</svg>
