<?xml version="1.0" encoding="UTF-8" standalone="no"?>
<svg
   xmlns:dc="http://purl.org/dc/elements/1.1/"
   xmlns:cc="http://creativecommons.org/ns#"
   xmlns:rdf="http://www.w3.org/1999/02/22-rdf-syntax-ns#"
   xmlns:svg="http://www.w3.org/2000/svg"
   xmlns="http://www.w3.org/2000/svg"
   xmlns:sodipodi="http://sodipodi.sourceforge.net/DTD/sodipodi-0.dtd"
   xmlns:inkscape="http://www.inkscape.org/namespaces/inkscape"
   width="15.875mm"
   height="5.1767497mm"
   viewBox="0 0 15.875 5.1767497"
   version="1.1"
   id="svg1888"
   inkscape:version="1.0.1 (c497b03c, 2020-09-10)"
   sodipodi:docname="gray-NLP.svg">
  <defs
     id="defs1882" />
  <sodipodi:namedview
     id="base"
     pagecolor="#ffffff"
     bordercolor="#666666"
     borderopacity="1.0"
     inkscape:pageopacity="0.0"
     inkscape:pageshadow="2"
     inkscape:zoom="6.40548"
     inkscape:cx="19.562026"
     inkscape:cy="35.134406"
     inkscape:document-units="mm"
     inkscape:current-layer="layer1"
     inkscape:document-rotation="0"
     showgrid="false"
     inkscape:window-width="1252"
     inkscape:window-height="971"
     inkscape:window-x="0"
     inkscape:window-y="211"
     inkscape:window-maximized="0" />
  <metadata
     id="metadata1885">
    <rdf:RDF>
      <cc:Work
         rdf:about="">
        <dc:format>image/svg+xml</dc:format>
        <dc:type
           rdf:resource="http://purl.org/dc/dcmitype/StillImage" />
        <dc:title />
      </cc:Work>
    </rdf:RDF>
  </metadata>
  <g
     inkscape:groupmode="layer"
     id="layer2"
     inkscape:label="Layer 2"
     style="display:none"
     transform="translate(-7.805205,1.9357149)">
    <rect
       style="display:inline;fill:#000000;stroke-width:0.226627;stroke-linecap:round;stroke-linejoin:round;stroke-miterlimit:10"
       id="rect2461"
       width="60.471661"
       height="29.626997"
       x="-15.386123"
       y="-9.5037279"
       ry="6.8264742" />
  </g>
  <g
     inkscape:label="Layer 1"
     inkscape:groupmode="layer"
     id="layer1"
     transform="translate(-97.89583,-6.6967511)"
     style="display:inline">
    <path
       id="Path_3"
       data-name="Path 3"
       d="M 98.758816,11.873501 V 9.210635 h 14.236554 v 2.662866"
       fill="none"
       stroke="#707070"
       stroke-width="0.133403" />
    <path
       id="Polygon_3"
       data-name="Polygon 3"
       d="M 98.696251,11.873501 97.89583,10.539466 h 1.600841 z"
       fill="#707070"
       style="stroke-width:0.133403" />
    <path
       id="Polygon_4"
       data-name="Polygon 4"
       d="M 112.97042,11.873501 112.17,10.539466 h 1.60083 z"
       fill="#707070"
       style="stroke-width:0.133403" />
    <g
       aria-label="nSubj"
       id="compound"
       style="font-weight:300;font-size:3.00156px;font-family:Nobel-Light, Nobel;fill:#707070;stroke-width:0.300157">
      <path
         d="M 103.82786,8.8878899 V 8.0924765 q 0,-0.1440749 -0.087,-0.2401248 -0.0841,-0.09605 -0.24313,-0.09605 -0.09,0 -0.16508,0.036019 -0.072,0.036019 -0.12607,0.093048 -0.051,0.054028 -0.081,0.1260656 -0.027,0.069036 -0.027,0.1380717 v 0.7383838 h -0.12306 V 7.6842643 h 0.12306 v 0.198103 q 0.057,-0.1050546 0.16209,-0.1680874 0.10805,-0.066034 0.24313,-0.066034 0.10505,0 0.18909,0.033017 0.0841,0.033017 0.14108,0.090047 0.057,0.05703 0.087,0.1350702 0.03,0.078041 0.03,0.1680873 v 0.8134228 z"
         style="stroke-width:0.300157"
         id="path845" />
      <path
         d="m 105.4495,8.3656184 q 0,0.123064 -0.051,0.225117 -0.051,0.1020531 -0.13807,0.1770921 -0.084,0.075039 -0.19511,0.1170608 -0.11105,0.03902 -0.23112,0.03902 -0.15908,0 -0.31216,-0.060031 -0.15008,-0.060031 -0.26414,-0.1680874 l 0.0871,-0.09605 q 0.10205,0.090047 0.22211,0.1440749 0.12307,0.054028 0.26714,0.054028 0.093,0 0.1801,-0.030016 0.087,-0.030016 0.15008,-0.087045 0.066,-0.05703 0.10505,-0.1350702 0.039,-0.078041 0.039,-0.1740905 0,-0.1170608 -0.045,-0.2011045 -0.042,-0.087045 -0.11406,-0.1530795 -0.072,-0.066034 -0.16509,-0.1170609 -0.0901,-0.051027 -0.18309,-0.102053 -0.0961,-0.051026 -0.1891,-0.1050546 -0.0931,-0.054028 -0.16509,-0.123064 -0.072,-0.072037 -0.11706,-0.1650858 -0.042,-0.093048 -0.042,-0.2191138 0,-0.1200624 0.045,-0.2161124 0.045,-0.099051 0.12007,-0.1650858 0.075,-0.069036 0.17409,-0.1050546 0.099,-0.03902 0.2071,-0.03902 0.17109,0 0.30616,0.054028 0.13507,0.051027 0.24913,0.1830952 l -0.10205,0.087045 q -0.10205,-0.1170608 -0.20711,-0.1560811 -0.10505,-0.042022 -0.24613,-0.042022 -0.078,0 -0.15308,0.027014 -0.072,0.024012 -0.12906,0.075039 -0.057,0.051026 -0.0901,0.1260655 -0.033,0.075039 -0.033,0.171089 0,0.102053 0.039,0.1800936 0.042,0.075039 0.10806,0.1350702 0.069,0.05703 0.15608,0.1080561 0.0871,0.048025 0.18009,0.09605 0.0991,0.051027 0.19511,0.1080562 0.096,0.05703 0.17108,0.1350702 0.078,0.075039 0.12307,0.177092 0.048,0.1020531 0.048,0.2401248 z"
         style="stroke-width:0.300157"
         id="path847" />
      <path
         d="m 106.59737,8.8878899 v -0.198103 q -0.057,0.1050546 -0.16509,0.1710889 -0.10505,0.063033 -0.24013,0.063033 -0.10505,0 -0.18909,-0.033017 -0.0841,-0.033017 -0.14108,-0.090047 -0.057,-0.05703 -0.087,-0.1350702 -0.03,-0.078041 -0.03,-0.1680873 V 7.6842643 h 0.12307 v 0.7954134 q 0,0.1440749 0.084,0.2401248 0.0871,0.09605 0.24613,0.09605 0.09,0 0.16208,-0.036019 0.075,-0.036019 0.12607,-0.090047 0.054,-0.05703 0.081,-0.1260655 0.03,-0.072038 0.03,-0.1410733 V 7.6842643 h 0.12306 v 1.2036256 z"
         style="stroke-width:0.300157"
         id="path849" />
      <path
         d="m 108.27303,8.2875779 q 0,0.1260655 -0.042,0.2401248 -0.039,0.1140592 -0.11406,0.204106 -0.075,0.087045 -0.18609,0.1410734 -0.10806,0.051027 -0.24313,0.051027 -0.081,0 -0.15308,-0.024013 -0.072,-0.024012 -0.13207,-0.063033 -0.057,-0.03902 -0.10205,-0.090047 -0.045,-0.054028 -0.069,-0.1080561 v 0.2491295 h -0.12306 V 6.6967511 h 0.12306 v 1.2366427 q 0.024,-0.054028 0.069,-0.1050546 0.045,-0.054028 0.10505,-0.093048 0.06,-0.03902 0.13207,-0.063033 0.072,-0.024012 0.15308,-0.024012 0.12907,0 0.23412,0.045023 0.10806,0.042022 0.1831,0.123064 0.078,0.081042 0.12006,0.2011045 0.045,0.1170608 0.045,0.2701404 z m -0.12906,0.003 q 0,-0.2431263 -0.12007,-0.3841996 -0.11706,-0.1440749 -0.34217,-0.1440749 -0.0991,0 -0.1831,0.045023 -0.081,0.042022 -0.14107,0.1170608 -0.06,0.072038 -0.0931,0.1650858 -0.033,0.093048 -0.033,0.1920998 0,0.1110578 0.033,0.2071077 0.036,0.09605 0.0961,0.1680873 0.063,0.072038 0.14708,0.1140593 0.087,0.03902 0.18909,0.03902 0.10806,0 0.1921,-0.042022 0.0841,-0.045023 0.14108,-0.1170609 0.057,-0.072037 0.084,-0.1650858 0.03,-0.09605 0.03,-0.1951014 z"
         style="stroke-width:0.300157"
         id="path851" />
      <path
         d="M 108.56817,7.3480896 V 7.1079648 h 0.12307 v 0.2401248 z m 0.12307,1.9330046 q 0,0.084044 -0.057,0.1260655 -0.054,0.045023 -0.14108,0.045023 -0.078,0 -0.13207,-0.015008 l -0.024,-0.1080561 q 0.024,0.009 0.057,0.012006 0.033,0.006 0.066,0.006 0.048,0 0.078,-0.024012 0.03,-0.021011 0.03,-0.075039 V 7.6842643 h 0.12307 v 1.5968299 z"
         style="stroke-width:0.300157"
         id="path853" />
    </g>
  </g>
</svg>
