<?xml version="1.0" encoding="UTF-8" standalone="no"?>
<svg
   xmlns:dc="http://purl.org/dc/elements/1.1/"
   xmlns:cc="http://creativecommons.org/ns#"
   xmlns:rdf="http://www.w3.org/1999/02/22-rdf-syntax-ns#"
   xmlns:svg="http://www.w3.org/2000/svg"
   xmlns="http://www.w3.org/2000/svg"
   xmlns:sodipodi="http://sodipodi.sourceforge.net/DTD/sodipodi-0.dtd"
   xmlns:inkscape="http://www.inkscape.org/namespaces/inkscape"
   width="11.772867mm"
   height="4.9182358mm"
   viewBox="0 0 11.772867 4.9182358"
   version="1.1"
   id="svg1888"
   inkscape:version="1.0.1 (c497b03c, 2020-09-10)"
   sodipodi:docname="gray-regards.svg">
  <defs
     id="defs1882" />
  <sodipodi:namedview
     id="base"
     pagecolor="#ffffff"
     bordercolor="#666666"
     borderopacity="1.0"
     inkscape:pageopacity="0.0"
     inkscape:pageshadow="2"
     inkscape:zoom="11.313709"
     inkscape:cx="20.743369"
     inkscape:cy="7.7561086"
     inkscape:document-units="mm"
     inkscape:current-layer="layer1"
     inkscape:document-rotation="0"
     showgrid="false"
     inkscape:window-width="1252"
     inkscape:window-height="943"
     inkscape:window-x="0"
     inkscape:window-y="211"
     inkscape:window-maximized="0" />
  <metadata
     id="metadata1885">
    <rdf:RDF>
      <cc:Work
         rdf:about="">
        <dc:format>image/svg+xml</dc:format>
        <dc:type
           rdf:resource="http://purl.org/dc/dcmitype/StillImage" />
        <dc:title />
      </cc:Work>
    </rdf:RDF>
  </metadata>
  <g
     inkscape:groupmode="layer"
     id="layer2"
     inkscape:label="Layer 2"
     style="display:none"
     transform="translate(-9.889888,1.9357149)">
    <rect
       style="display:inline;fill:#000000;stroke-width:0.226627;stroke-linecap:round;stroke-linejoin:round;stroke-miterlimit:10"
       id="rect2461"
       width="60.471661"
       height="29.626997"
       x="-15.386123"
       y="-9.5037279"
       ry="6.8264742" />
  </g>
  <g
     inkscape:label="Layer 1"
     inkscape:groupmode="layer"
     id="layer1"
     transform="translate(-99.980513,-6.6967511)"
     style="display:inline">
    <path
       id="Path_3"
       data-name="Path 3"
       d="M 100.58083,11.522069 V 9.5448913 h 10.57064 v 1.9771777"
       fill="none"
       stroke="#707070"
       stroke-width="0.100052"
       style="stroke-width:0.099;stroke-miterlimit:4;stroke-dasharray:none" />
    <path
       id="Polygon_3"
       data-name="Polygon 3"
       d="m 100.58083,11.607852 -0.600317,-1.000526 h 1.200637 z"
       fill="#707070"
       style="stroke-width:0.100052" />
    <path
       id="Polygon_4"
       data-name="Polygon 4"
       d="m 111.15308,11.614987 -0.60032,-1.000526 h 1.20062 z"
       fill="#707070"
       style="stroke-width:0.100052" />
    <g
       aria-label="obj"
       id="compound"
       style="font-weight:300;font-size:3.00156px;font-family:Nobel-Light, Nobel;fill:#707070;stroke-width:0.300157">
      <path
         d="m 105.53083,8.2845763 q 0,0.1410733 -0.051,0.2581342 -0.048,0.1170608 -0.13508,0.204106 -0.087,0.084044 -0.2041,0.1320687 -0.11406,0.045023 -0.24613,0.045023 -0.13207,0 -0.24913,-0.045023 -0.11406,-0.048025 -0.2011,-0.1320687 -0.0871,-0.087045 -0.13807,-0.204106 -0.048,-0.1170609 -0.048,-0.2581342 0,-0.1410733 0.048,-0.2581342 0.051,-0.1170608 0.13807,-0.2011045 0.087,-0.084044 0.2011,-0.129067 0.11706,-0.048025 0.24913,-0.048025 0.13207,0 0.24613,0.048025 0.11706,0.045023 0.2041,0.129067 0.0871,0.084044 0.13508,0.2011045 0.051,0.1170609 0.051,0.2581342 z m -0.12907,0 q 0,-0.1140593 -0.039,-0.2101092 -0.039,-0.09605 -0.10805,-0.1650858 -0.066,-0.069036 -0.15908,-0.1080561 -0.093,-0.03902 -0.20111,-0.03902 -0.10806,0 -0.2011,0.03902 -0.093,0.03902 -0.16209,0.1080561 -0.066,0.069036 -0.10505,0.1650858 -0.039,0.09605 -0.039,0.2101092 0,0.1140593 0.039,0.2101092 0.039,0.09605 0.10505,0.1680874 0.069,0.069036 0.16209,0.1080561 0.093,0.03902 0.2011,0.03902 0.10806,0 0.20111,-0.03902 0.093,-0.03902 0.15908,-0.1080561 0.069,-0.072038 0.10805,-0.1680874 0.039,-0.09605 0.039,-0.2101092 z"
         style="stroke-width:0.300157"
         id="path845" />
      <path
         d="m 106.99029,8.2875779 q 0,0.1260655 -0.042,0.2401248 -0.039,0.1140592 -0.11406,0.204106 -0.075,0.087045 -0.18609,0.1410734 -0.10806,0.051027 -0.24313,0.051027 -0.081,0 -0.15308,-0.024013 -0.072,-0.024012 -0.13207,-0.063033 -0.057,-0.03902 -0.10205,-0.090047 -0.045,-0.054028 -0.069,-0.1080561 v 0.2491295 h -0.12306 V 6.6967511 h 0.12306 v 1.2366427 q 0.024,-0.054028 0.069,-0.1050546 0.045,-0.054028 0.10505,-0.093048 0.06,-0.03902 0.13207,-0.063033 0.072,-0.024012 0.15308,-0.024012 0.12907,0 0.23412,0.045023 0.10806,0.042022 0.1831,0.123064 0.078,0.081042 0.12006,0.2011045 0.045,0.1170608 0.045,0.2701404 z m -0.12906,0.003 q 0,-0.2431263 -0.12007,-0.3841996 -0.11706,-0.1440749 -0.34217,-0.1440749 -0.0991,0 -0.1831,0.045023 -0.081,0.042022 -0.14107,0.1170608 -0.06,0.072038 -0.0931,0.1650858 -0.033,0.093048 -0.033,0.1920998 0,0.1110578 0.033,0.2071077 0.036,0.09605 0.0961,0.1680873 0.063,0.072038 0.14708,0.1140593 0.087,0.03902 0.18909,0.03902 0.10806,0 0.1921,-0.042022 0.0841,-0.045023 0.14108,-0.1170609 0.057,-0.072037 0.084,-0.1650858 0.03,-0.09605 0.03,-0.1951014 z"
         style="stroke-width:0.300157"
         id="path847" />
      <path
         d="M 107.28543,7.3480896 V 7.1079648 h 0.12307 v 0.2401248 z m 0.12307,1.9330046 q 0,0.084044 -0.057,0.1260655 -0.054,0.045023 -0.14108,0.045023 -0.078,0 -0.13207,-0.015008 l -0.024,-0.1080561 q 0.024,0.009 0.057,0.012006 0.033,0.006 0.066,0.006 0.048,0 0.0781,-0.024012 0.03,-0.021011 0.03,-0.075039 V 7.6842643 h 0.12307 v 1.5968299 z"
         style="stroke-width:0.300157"
         id="path849" />
    </g>
  </g>
</svg>
