<?xml version="1.0" encoding="UTF-8" standalone="no"?>
<svg
   xmlns:dc="http://purl.org/dc/elements/1.1/"
   xmlns:cc="http://creativecommons.org/ns#"
   xmlns:rdf="http://www.w3.org/1999/02/22-rdf-syntax-ns#"
   xmlns:svg="http://www.w3.org/2000/svg"
   xmlns="http://www.w3.org/2000/svg"
   xmlns:sodipodi="http://sodipodi.sourceforge.net/DTD/sodipodi-0.dtd"
   xmlns:inkscape="http://www.inkscape.org/namespaces/inkscape"
   width="5.3359461mm"
   height="5.7691917mm"
   viewBox="0 0 5.335946 5.7691918"
   version="1.1"
   id="svg1036"
   inkscape:version="1.0.1 (c497b03c, 2020-09-10)"
   sodipodi:docname="punc.svg">
  <defs
     id="defs1030" />
  <sodipodi:namedview
     id="base"
     pagecolor="#ffffff"
     bordercolor="#666666"
     borderopacity="1.0"
     inkscape:pageopacity="0.0"
     inkscape:pageshadow="2"
     inkscape:zoom="7.9195959"
     inkscape:cx="-5.8390112"
     inkscape:cy="32.611508"
     inkscape:document-units="mm"
     inkscape:current-layer="layer1"
     inkscape:document-rotation="0"
     showgrid="false"
     inkscape:window-width="1252"
     inkscape:window-height="943"
     inkscape:window-x="0"
     inkscape:window-y="211"
     inkscape:window-maximized="0"
     showguides="true"
     inkscape:guide-bbox="true">
    <sodipodi:guide
       position="1.5875,1.95883"
       orientation="0,-1"
       id="guide2205" />
  </sodipodi:namedview>
  <metadata
     id="metadata1033">
    <rdf:RDF>
      <cc:Work
         rdf:about="">
        <dc:format>image/svg+xml</dc:format>
        <dc:type
           rdf:resource="http://purl.org/dc/dcmitype/StillImage" />
        <dc:title />
      </cc:Work>
    </rdf:RDF>
  </metadata>
  <g
     inkscape:label="Layer 1"
     inkscape:groupmode="layer"
     id="layer1"
     transform="translate(-96.411894,-99.745788)">
    <path
       id="Path_10"
       data-name="Path 10"
       d="m 97.136827,103.6858 v -2.21199 h 3.785873 v 2.21199"
       fill="none"
       stroke="#707070"
       stroke-width="0.161716" />
    <path
       id="Polygon_12"
       data-name="Polygon 12"
       d="m 97.205644,105.51498 -0.79375,-1.97912 h 1.5875 z"
       fill="#707070"
       style="stroke-width:0.161808" />
    <path
       id="Polygon_13"
       data-name="Polygon 13"
       d="m 100.95409,105.51498 -0.79374,-1.97912 h 1.58749 z"
       fill="#707070"
       style="stroke-width:0.161808" />
    <g
       aria-label="punc"
       id="punc-3"
       style="font-weight:300;font-size:2.64583px;font-family:Nobel-Light, Nobel;fill:#707070;stroke-width:0.264583">
      <path
         d="m 97.832541,100.30141 q 0,0.13494 -0.04233,0.24077 -0.03969,0.10319 -0.111124,0.17727 -0.07144,0.0741 -0.166688,0.11377 -0.09525,0.0371 -0.201083,0.0371 -0.06879,0 -0.132291,-0.0212 -0.0635,-0.0212 -0.116417,-0.0556 -0.05027,-0.0344 -0.08996,-0.0794 -0.03704,-0.0476 -0.05821,-0.0953 v 0.69321 h -0.108479 v -1.534582 h 0.108479 v 0.219604 q 0.02117,-0.04762 0.0635,-0.0926 0.04233,-0.04762 0.0979,-0.08202 0.05556,-0.0344 0.121709,-0.05556 0.06615,-0.02117 0.137583,-0.02117 0.116416,0 0.20902,0.04498 0.0926,0.04498 0.156104,0.121708 0.0635,0.07673 0.0979,0.177274 0.0344,0.10054 0.0344,0.21166 z m -0.113771,0.008 q 0,-0.0926 -0.02646,-0.17462 -0.02381,-0.0847 -0.07408,-0.148171 -0.04762,-0.0635 -0.121709,-0.100542 -0.07144,-0.03969 -0.169333,-0.03969 -0.08996,0 -0.166687,0.03704 -0.07408,0.0344 -0.129646,0.0979 -0.05556,0.0635 -0.08731,0.148163 -0.0291,0.0847 -0.0291,0.18257 0,0.0873 0.0291,0.16933 0.0291,0.082 0.08202,0.14817 0.05556,0.0635 0.129645,0.10318 0.07408,0.037 0.166688,0.037 0.179916,0 0.288395,-0.1217 0.108479,-0.12436 0.108479,-0.33867 z"
         style="stroke-width:0.264583"
         id="path844" />
      <path
         d="m 98.825595,100.83852 v -0.17463 q -0.05027,0.0926 -0.145521,0.15081 -0.0926,0.0556 -0.211666,0.0556 -0.0926,0 -0.166687,-0.0291 -0.07408,-0.0291 -0.124354,-0.0794 -0.05027,-0.0503 -0.07673,-0.11907 -0.02646,-0.0688 -0.02646,-0.14816 v -0.717022 h 0.108479 v 0.701142 q 0,0.127 0.07408,0.21167 0.07673,0.0847 0.216958,0.0847 0.07938,0 0.142875,-0.0318 0.06615,-0.0318 0.111124,-0.0794 0.04762,-0.0503 0.07144,-0.11112 0.02646,-0.0635 0.02646,-0.12436 v -0.650872 h 0.108479 v 1.060982 z"
         style="stroke-width:0.264583"
         id="path846" />
      <path
         d="m 100.0275,100.83852 v -0.70115 q 0,-0.127 -0.07672,-0.211665 -0.07408,-0.08467 -0.214312,-0.08467 -0.07937,0 -0.145521,0.03175 -0.0635,0.03175 -0.111125,0.08202 -0.04498,0.04762 -0.07144,0.111121 -0.02381,0.0609 -0.02381,0.12171 v 0.65088 h -0.108479 v -1.060982 h 0.108479 v 0.174625 q 0.05027,-0.0926 0.142875,-0.148166 0.09525,-0.05821 0.214312,-0.05821 0.0926,0 0.166688,0.02911 0.07408,0.0291 0.124357,0.07937 0.0503,0.05027 0.0767,0.119062 0.0264,0.06879 0.0264,0.14817 v 0.71702 z"
         style="stroke-width:0.264583"
         id="path848" />
      <path
         d="m 101.35377,100.60833 q -0.0714,0.11112 -0.18521,0.18785 -0.11377,0.0741 -0.26723,0.0741 -0.11377,0 -0.21166,-0.0423 -0.0953,-0.045 -0.16669,-0.12171 -0.0688,-0.0767 -0.10848,-0.17991 -0.0397,-0.10319 -0.0397,-0.22225 0,-0.11642 0.0397,-0.21696 0.0397,-0.103187 0.10848,-0.17727 0.0714,-0.07673 0.16669,-0.119062 0.0952,-0.04498 0.20372,-0.04498 0.0873,0 0.15611,0.01852 0.0688,0.01852 0.12171,0.04762 0.0529,0.0291 0.0926,0.06615 0.0423,0.03704 0.0714,0.07144 l -0.0873,0.06879 q -0.0635,-0.07938 -0.14553,-0.124355 -0.082,-0.04763 -0.19314,-0.04763 -0.0926,0 -0.17198,0.03704 -0.0767,0.0344 -0.13229,0.0979 -0.0556,0.06085 -0.0873,0.142873 -0.0291,0.082 -0.0291,0.17463 0,0.0952 0.0291,0.18256 0.0318,0.0847 0.0847,0.15081 0.0556,0.0635 0.12965,0.10054 0.0741,0.037 0.16139,0.037 0.127,0 0.21696,-0.0582 0.09,-0.0582 0.15875,-0.15875 l 0.0847,0.0556 z"
         style="stroke-width:0.264583"
         id="path850" />
    </g>
  </g>
</svg>
