<?xml version="1.0" encoding="UTF-8" standalone="no"?>
<svg
   xmlns:dc="http://purl.org/dc/elements/1.1/"
   xmlns:cc="http://creativecommons.org/ns#"
   xmlns:rdf="http://www.w3.org/1999/02/22-rdf-syntax-ns#"
   xmlns:svg="http://www.w3.org/2000/svg"
   xmlns="http://www.w3.org/2000/svg"
   xmlns:sodipodi="http://sodipodi.sourceforge.net/DTD/sodipodi-0.dtd"
   xmlns:inkscape="http://www.inkscape.org/namespaces/inkscape"
   width="27.522844mm"
   height="4.8270659mm"
   viewBox="0 0 27.522844 4.8270659"
   version="1.1"
   id="svg1888"
   inkscape:version="1.0.1 (c497b03c, 2020-09-10)"
   sodipodi:docname="red-irrelevant.svg">
  <defs
     id="defs1882" />
  <sodipodi:namedview
     id="base"
     pagecolor="#ffffff"
     bordercolor="#666666"
     borderopacity="1.0"
     inkscape:pageopacity="0.0"
     inkscape:pageshadow="2"
     inkscape:zoom="2"
     inkscape:cx="71.268742"
     inkscape:cy="-12.614221"
     inkscape:document-units="mm"
     inkscape:current-layer="layer1"
     inkscape:document-rotation="0"
     showgrid="false"
     inkscape:window-width="1252"
     inkscape:window-height="915"
     inkscape:window-x="0"
     inkscape:window-y="211"
     inkscape:window-maximized="0" />
  <metadata
     id="metadata1885">
    <rdf:RDF>
      <cc:Work
         rdf:about="">
        <dc:format>image/svg+xml</dc:format>
        <dc:type
           rdf:resource="http://purl.org/dc/dcmitype/StillImage" />
        <dc:title />
      </cc:Work>
    </rdf:RDF>
  </metadata>
  <g
     inkscape:groupmode="layer"
     id="layer2"
     inkscape:label="Layer 2"
     style="display:none"
     transform="translate(-2.01574,1.512495)">
    <rect
       style="display:inline;fill:#000000;stroke-width:0.226627;stroke-linecap:round;stroke-linejoin:round;stroke-miterlimit:10"
       id="rect2461"
       width="60.471661"
       height="29.626997"
       x="-15.386123"
       y="-9.5037279"
       ry="6.8264742" />
  </g>
  <g
     inkscape:label="Layer 1"
     inkscape:groupmode="layer"
     id="layer1"
     transform="translate(-92.106365,-7.119971)"
     style="display:inline">
    <path
       id="Path_3"
       data-name="Path 3"
       d="M 92.721035,11.693878 V 9.3962414 h 26.290025 v 2.2976366"
       fill="none"
       stroke="#707070"
       stroke-width="0.100052"
       style="stroke-width:0.168305;stroke-miterlimit:4;stroke-dasharray:none" />
    <path
       id="Polygon_3"
       data-name="Polygon 3"
       d="m 92.780941,11.933585 -0.674576,-1.124291 h 1.349154 z"
       fill="#707070"
       style="stroke-width:0.112428" />
    <path
       id="Polygon_4"
       data-name="Polygon 4"
       d="m 118.95465,11.947037 -0.67458,-1.124291 h 1.34914 z"
       fill="#707070"
       style="stroke-width:0.112428" />
    <g
       aria-label="target"
       id="compound"
       style="font-weight:300;font-size:3.00156px;font-family:Nobel-Light, Nobel;fill:#707070;stroke-width:0.300157">
      <path
         d="m 103.25751,8.8878899 q -0.12606,0 -0.1981,-0.072037 -0.072,-0.072037 -0.072,-0.1830951 V 7.7923205 h -0.1891 V 7.6842643 h 0.1891 V 7.119971 h 0.12306 v 0.5642933 h 0.23113 v 0.1080562 h -0.23113 v 0.8434383 q 0,0.051027 0.039,0.099051 0.039,0.045023 0.12006,0.045023 h 0.075 v 0.1080562 z"
         style="stroke-width:0.300157"
         id="path845" />
      <path
         d="M 104.42095,8.8878899 V 8.7498181 q -0.078,0.069036 -0.1891,0.123064 -0.11106,0.051027 -0.25514,0.051027 -0.09,0 -0.16808,-0.024013 -0.078,-0.024012 -0.13807,-0.072037 -0.057,-0.048025 -0.093,-0.1170609 -0.033,-0.072037 -0.033,-0.1650858 0,-0.2131107 0.16509,-0.3151638 0.16508,-0.1050546 0.46524,-0.1050546 h 0.24613 v -0.099051 q 0,-0.084044 -0.03,-0.1350701 -0.03,-0.054028 -0.078,-0.081042 -0.048,-0.030016 -0.11106,-0.03902 -0.06,-0.009 -0.12306,-0.009 -0.21912,0 -0.36319,0.087045 l -0.051,-0.102053 q 0.084,-0.048025 0.1861,-0.072037 0.10205,-0.027014 0.22812,-0.027014 0.24312,0 0.35418,0.102053 0.11106,0.099051 0.11106,0.2641373 v 0.873454 z m 0,-0.6543401 h -0.23413 q -0.24612,0 -0.38119,0.072037 -0.13207,0.072038 -0.13207,0.2401248 0,0.1260655 0.087,0.1951014 0.0901,0.069036 0.21611,0.069036 0.13508,0 0.24913,-0.05703 0.11707,-0.05703 0.19511,-0.1260656 z"
         style="stroke-width:0.300157"
         id="path847" />
      <path
         d="m 105.513,7.8313408 q -0.039,-0.036019 -0.0811,-0.054028 -0.039,-0.021011 -0.0961,-0.021011 -0.06,0 -0.11406,0.036019 -0.054,0.036019 -0.0961,0.093048 -0.042,0.05703 -0.069,0.1290671 -0.024,0.072037 -0.024,0.1410733 v 0.7323807 h -0.12307 V 7.6842643 h 0.12307 v 0.1800936 q 0.042,-0.087045 0.12306,-0.150078 0.081,-0.066034 0.1921,-0.066034 0.072,0 0.12607,0.021011 0.057,0.018009 0.11105,0.069036 z"
         style="stroke-width:0.300157"
         id="path849" />
      <path
         d="m 106.83509,8.8788852 q 0,0.1380717 -0.045,0.2461279 -0.045,0.1080562 -0.12607,0.1830952 -0.078,0.075039 -0.18309,0.1140592 -0.10506,0.03902 -0.22512,0.03902 -0.14708,0 -0.28515,-0.054028 -0.13507,-0.054028 -0.23712,-0.1590826 l 0.087,-0.078041 q 0.078,0.087045 0.1921,0.1320686 0.11706,0.045023 0.24913,0.045023 0.09,0 0.17109,-0.030016 0.0841,-0.030016 0.14408,-0.090047 0.063,-0.05703 0.0991,-0.1440748 0.036,-0.084044 0.036,-0.1951014 V 8.6387604 q -0.024,0.054028 -0.069,0.1080561 -0.045,0.051027 -0.10505,0.090047 -0.06,0.03902 -0.13207,0.063033 -0.072,0.024013 -0.15308,0.024013 -0.12907,0 -0.23713,-0.042022 -0.10505,-0.045023 -0.18309,-0.1260655 -0.075,-0.081042 -0.12006,-0.1981029 -0.042,-0.1200624 -0.042,-0.273142 0,-0.1260655 0.039,-0.2401248 0.042,-0.1140593 0.11706,-0.2011045 0.075,-0.090047 0.18309,-0.1410733 0.11106,-0.054028 0.24613,-0.054028 0.081,0 0.15308,0.024012 0.072,0.024013 0.12907,0.063033 0.06,0.03902 0.10505,0.093048 0.045,0.051026 0.069,0.1050546 V 7.6842643 h 0.12306 v 1.1946209 z m -0.12306,-0.5883058 q 0,-0.1110577 -0.036,-0.2071076 -0.033,-0.09605 -0.0961,-0.1680874 -0.06,-0.072037 -0.14708,-0.1110577 -0.084,-0.042022 -0.1861,-0.042022 -0.10805,0 -0.1921,0.045023 -0.084,0.042022 -0.14107,0.1140593 -0.057,0.072037 -0.087,0.1680873 -0.027,0.093048 -0.027,0.1920998 0,0.2431264 0.11706,0.3872013 0.12007,0.1410733 0.34518,0.1410733 0.099,0 0.1801,-0.042022 0.084,-0.045023 0.14407,-0.1170609 0.06,-0.075039 0.0931,-0.1680873 0.033,-0.093048 0.033,-0.1920999 z"
         style="stroke-width:0.300157"
         id="path851" />
      <path
         d="m 107.25836,8.2695685 q 0,0.1140593 0.033,0.2131108 0.033,0.099051 0.0931,0.1710889 0.063,0.072037 0.15308,0.1140593 0.0901,0.042022 0.20711,0.042022 0.13507,0 0.23412,-0.045023 0.10205,-0.048025 0.1861,-0.1350702 l 0.087,0.075039 q -0.033,0.03902 -0.081,0.078041 -0.048,0.03902 -0.11406,0.072037 -0.063,0.030016 -0.14407,0.048025 -0.078,0.021011 -0.17409,0.021011 -0.15308,0 -0.27014,-0.054028 -0.11406,-0.054028 -0.1891,-0.1440749 -0.075,-0.093048 -0.11406,-0.2101092 -0.036,-0.1200624 -0.036,-0.2491295 0,-0.1170608 0.036,-0.2281185 0.036,-0.1110577 0.10805,-0.198103 0.075,-0.087045 0.1861,-0.1380717 0.11106,-0.054028 0.26114,-0.054028 0.14407,0 0.24612,0.054028 0.10506,0.054028 0.17109,0.1410733 0.069,0.087045 0.10206,0.1981029 0.033,0.1110578 0.039,0.2281186 z m 0.87045,-0.1080562 q -0.006,-0.069036 -0.033,-0.1410733 -0.027,-0.072037 -0.081,-0.129067 -0.051,-0.05703 -0.12607,-0.093048 -0.075,-0.036019 -0.17409,-0.036019 -0.10505,0 -0.18609,0.033017 -0.078,0.030016 -0.13207,0.087045 -0.054,0.054028 -0.087,0.1260655 -0.033,0.072037 -0.045,0.1530795 h 0.86445 z"
         style="stroke-width:0.300157"
         id="path853" />
      <path
         d="m 108.85026,8.8878899 q -0.12606,0 -0.1981,-0.072037 -0.072,-0.072037 -0.072,-0.1830951 V 7.7923205 h -0.1891 V 7.6842643 h 0.1891 V 7.119971 h 0.12307 v 0.5642933 h 0.23112 v 0.1080562 h -0.23112 v 0.8434383 q 0,0.051027 0.039,0.099051 0.039,0.045023 0.12006,0.045023 h 0.075 v 0.1080562 z"
         style="stroke-width:0.300157"
         id="path855" />
    </g>
  </g>
</svg>
