<?xml version="1.0" encoding="UTF-8" standalone="no"?>
<svg
   xmlns:dc="http://purl.org/dc/elements/1.1/"
   xmlns:cc="http://creativecommons.org/ns#"
   xmlns:rdf="http://www.w3.org/1999/02/22-rdf-syntax-ns#"
   xmlns:svg="http://www.w3.org/2000/svg"
   xmlns="http://www.w3.org/2000/svg"
   xmlns:sodipodi="http://sodipodi.sourceforge.net/DTD/sodipodi-0.dtd"
   xmlns:inkscape="http://www.inkscape.org/namespaces/inkscape"
   width="70.515556mm"
   height="4.2445731mm"
   viewBox="0 0 70.515561 4.2445732"
   version="1.1"
   id="svg1888"
   inkscape:version="1.0.1 (c497b03c, 2020-09-10)"
   sodipodi:docname="red-millions.svg">
  <defs
     id="defs1882" />
  <sodipodi:namedview
     id="base"
     pagecolor="#ffffff"
     bordercolor="#666666"
     borderopacity="1.0"
     inkscape:pageopacity="0.0"
     inkscape:pageshadow="2"
     inkscape:zoom="32"
     inkscape:cx="134.88977"
     inkscape:cy="5.2267863"
     inkscape:document-units="mm"
     inkscape:current-layer="layer1"
     inkscape:document-rotation="0"
     showgrid="false"
     inkscape:window-width="1252"
     inkscape:window-height="915"
     inkscape:window-x="0"
     inkscape:window-y="211"
     inkscape:window-maximized="0" />
  <metadata
     id="metadata1885">
    <rdf:RDF>
      <cc:Work
         rdf:about="">
        <dc:format>image/svg+xml</dc:format>
        <dc:type
           rdf:resource="http://purl.org/dc/dcmitype/StillImage" />
        <dc:title />
      </cc:Work>
    </rdf:RDF>
  </metadata>
  <g
     inkscape:groupmode="layer"
     id="layer2"
     inkscape:label="Layer 2"
     style="display:none"
     transform="translate(12.756522,1.1734216)">
    <rect
       style="display:inline;fill:#000000;stroke-width:0.226627;stroke-linecap:round;stroke-linejoin:round;stroke-miterlimit:10"
       id="rect2461"
       width="60.471661"
       height="29.626997"
       x="-15.386123"
       y="-9.5037279"
       ry="6.8264742" />
  </g>
  <g
     inkscape:label="Layer 1"
     inkscape:groupmode="layer"
     id="layer1"
     transform="translate(-77.334104,-7.4590449)"
     style="display:inline">
    <path
       id="Polygon_8"
       data-name="Polygon 8"
       d="m 78.127854,11.703618 -0.79375,-1.322917 h 1.5875 z"
       fill="#707070"
       style="stroke-width:0.132291" />
    <path
       id="Polygon_9"
       data-name="Polygon 9"
       d="m 147.05591,11.703618 -0.79375,-1.322917 h 1.5875 z"
       fill="#707070"
       style="stroke-width:0.132291" />
    <g
       aria-label="conj"
       id="conj"
       style="font-weight:300;font-size:2.64582px;font-family:Nobel-Light, Nobel;fill:#707070;stroke-width:0.264582">
      <path
         d="m 112.53293,8.7978298 q -0.0714,0.1111244 -0.1852,0.1878532 -0.11378,0.074083 -0.26723,0.074083 -0.11377,0 -0.21167,-0.042333 -0.0953,-0.044979 -0.16668,-0.1217077 -0.0688,-0.076729 -0.10848,-0.1799158 -0.0397,-0.1031869 -0.0397,-0.2222488 0,-0.1164161 0.0397,-0.2169573 0.0397,-0.1031869 0.10848,-0.1772699 0.0714,-0.076729 0.16668,-0.1190619 0.0952,-0.044979 0.20373,-0.044979 0.0873,0 0.1561,0.018521 0.0688,0.018521 0.12171,0.047625 0.0529,0.029104 0.0926,0.066145 0.0423,0.037041 0.0714,0.071437 l -0.0873,0.068791 q -0.0635,-0.079375 -0.14552,-0.1243535 -0.082,-0.047625 -0.19315,-0.047625 -0.0926,0 -0.17197,0.037041 -0.0767,0.034396 -0.13229,0.097895 -0.0556,0.060854 -0.0873,0.1428743 -0.0291,0.08202 -0.0291,0.1746241 0,0.095249 0.0291,0.1825616 0.0318,0.084666 0.0847,0.1508117 0.0556,0.0635 0.12964,0.1005412 0.0741,0.037041 0.1614,0.037041 0.127,0 0.21696,-0.058208 0.09,-0.058208 0.15875,-0.1587492 l 0.0847,0.055562 z"
         style="stroke-width:0.264582"
         id="path845" />
      <path
         d="m 113.80752,8.4962063 q 0,0.1243535 -0.045,0.2275405 -0.0423,0.103187 -0.11907,0.1799158 -0.0767,0.074083 -0.17991,0.116416 -0.10054,0.039687 -0.21696,0.039687 -0.11641,0 -0.2196,-0.039687 -0.10054,-0.042333 -0.17727,-0.116416 -0.0767,-0.076729 -0.12171,-0.1799158 -0.0423,-0.103187 -0.0423,-0.2275405 0,-0.1243535 0.0423,-0.2275405 0.045,-0.103187 0.12171,-0.17727 0.0767,-0.074083 0.17727,-0.1137702 0.10319,-0.042333 0.2196,-0.042333 0.11642,0 0.21696,0.042333 0.10319,0.039687 0.17991,0.1137702 0.0767,0.074083 0.11907,0.17727 0.045,0.103187 0.045,0.2275405 z m -0.11378,0 q 0,-0.1005412 -0.0344,-0.1852074 -0.0344,-0.084666 -0.0953,-0.1455201 -0.0582,-0.060854 -0.14023,-0.09525 -0.082,-0.034396 -0.17727,-0.034396 -0.0953,0 -0.17727,0.034396 -0.082,0.034396 -0.14287,0.09525 -0.0582,0.060854 -0.0926,0.1455201 -0.0344,0.084666 -0.0344,0.1852074 0,0.1005411 0.0344,0.1852074 0.0344,0.084666 0.0926,0.1481659 0.0608,0.060854 0.14287,0.095249 0.082,0.034396 0.17727,0.034396 0.0952,0 0.17727,-0.034396 0.082,-0.034396 0.14023,-0.095249 0.0609,-0.0635 0.0953,-0.1481659 0.0344,-0.084666 0.0344,-0.1852074 z"
         style="stroke-width:0.264582"
         id="path847" />
      <path
         d="M 114.81884,9.0280161 V 8.3268738 q 0,-0.1269993 -0.0767,-0.2116656 -0.0741,-0.084666 -0.21431,-0.084666 -0.0794,0 -0.14552,0.03175 -0.0635,0.03175 -0.11113,0.08202 -0.045,0.047625 -0.0714,0.1111245 -0.0238,0.060854 -0.0238,0.1217077 v 0.6508717 h -0.10847 V 7.9670423 h 0.10847 v 0.1746241 q 0.0503,-0.092604 0.14288,-0.1481659 0.0952,-0.058208 0.21431,-0.058208 0.0926,0 0.16669,0.029104 0.0741,0.029104 0.12435,0.079375 0.0503,0.050271 0.0767,0.1190619 0.0265,0.068791 0.0265,0.1481659 v 0.7170172 z"
         style="stroke-width:0.264582"
         id="path849" />
      <path
         d="M 115.25081,7.6707105 V 7.4590449 h 0.10848 v 0.2116656 z m 0.10848,1.703908 q 0,0.074083 -0.0503,0.1111244 -0.0476,0.039687 -0.12436,0.039687 -0.0688,0 -0.11641,-0.013229 l -0.0212,-0.095249 q 0.0212,0.00794 0.0503,0.010583 0.0291,0.00529 0.0582,0.00529 0.0423,0 0.0688,-0.021166 0.0265,-0.018521 0.0265,-0.066145 V 7.9670423 h 0.10848 v 1.4075762 z"
         style="stroke-width:0.264582"
         id="path851" />
    </g>
    <path
       id="Path_7"
       data-name="Path 7"
       d="M 78.127854,11.571325 V 9.2562208 h 68.928056 v 2.3151042"
       fill="none"
       stroke="#707070"
       stroke-width="0.132291" />
  </g>
</svg>
