<?xml version="1.0" encoding="UTF-8" standalone="no"?>
<svg
   xmlns:dc="http://purl.org/dc/elements/1.1/"
   xmlns:cc="http://creativecommons.org/ns#"
   xmlns:rdf="http://www.w3.org/1999/02/22-rdf-syntax-ns#"
   xmlns:svg="http://www.w3.org/2000/svg"
   xmlns="http://www.w3.org/2000/svg"
   xmlns:sodipodi="http://sodipodi.sourceforge.net/DTD/sodipodi-0.dtd"
   xmlns:inkscape="http://www.inkscape.org/namespaces/inkscape"
   width="9.3761902mm"
   height="7.2060928mm"
   viewBox="0 0 9.3761906 7.206093"
   version="1.1"
   id="svg1888"
   inkscape:version="1.0.1 (c497b03c, 2020-09-10)"
   sodipodi:docname="red-low.svg">
  <defs
     id="defs1882" />
  <sodipodi:namedview
     id="base"
     pagecolor="#ffffff"
     bordercolor="#666666"
     borderopacity="1.0"
     inkscape:pageopacity="0.0"
     inkscape:pageshadow="2"
     inkscape:zoom="11.313709"
     inkscape:cx="19.283079"
     inkscape:cy="27.275605"
     inkscape:document-units="mm"
     inkscape:current-layer="layer1"
     inkscape:document-rotation="0"
     showgrid="false"
     inkscape:window-width="1252"
     inkscape:window-height="915"
     inkscape:window-x="0"
     inkscape:window-y="211"
     inkscape:window-maximized="0" />
  <metadata
     id="metadata1885">
    <rdf:RDF>
      <cc:Work
         rdf:about="">
        <dc:format>image/svg+xml</dc:format>
        <dc:type
           rdf:resource="http://purl.org/dc/dcmitype/StillImage" />
        <dc:title />
      </cc:Work>
    </rdf:RDF>
  </metadata>
  <g
     inkscape:groupmode="layer"
     id="layer2"
     inkscape:label="Layer 2"
     style="display:none"
     transform="translate(-13.603185,-0.02374582)">
    <rect
       style="display:inline;fill:#000000;stroke-width:0.226627;stroke-linecap:round;stroke-linejoin:round;stroke-miterlimit:10"
       id="rect2461"
       width="60.471661"
       height="29.626997"
       x="-15.386123"
       y="-9.5037279"
       ry="6.8264742" />
  </g>
  <g
     inkscape:label="Layer 1"
     inkscape:groupmode="layer"
     id="layer1"
     transform="translate(-103.69381,-8.6562118)"
     style="display:inline">
    <g
       id="g6625">
      <path
         id="Path_3"
         data-name="Path 3"
         d="m 104.58395,14.161365 v -2.970759 h 7.54842 v 2.970759"
         fill="none"
         stroke="#707070"
         stroke-width="0.148828" />
    </g>
    <path
       id="Path_4"
       data-name="Path 4"
       d="m 108.35808,14.161365 v -2.970759 h 3.77413 v 2.970759"
       fill="none"
       stroke="#707070"
       stroke-width="0.148828" />
    <path
       id="Polygon_3"
       data-name="Polygon 3"
       d="m 104.58679,14.476676 -0.89298,-1.48828 h 1.78595 z"
       fill="#707070"
       style="stroke-width:0.148828" />
    <path
       id="Polygon_4"
       data-name="Polygon 4"
       d="m 112.17702,14.476676 -0.89297,-1.48828 H 113.07 Z"
       fill="#707070"
       style="stroke-width:0.148828" />
    <g
       aria-label="amod"
       id="amod"
       style="font-weight:300;font-size:2.48046px;font-family:Nobel-Light, Nobel;fill:#707070;stroke-width:0.248046">
      <path
         d="m 106.46911,10.466948 v -0.114102 q -0.0645,0.05705 -0.15627,0.101699 -0.0918,0.04217 -0.21084,0.04217 -0.0744,0 -0.13891,-0.01984 -0.0645,-0.01984 -0.1141,-0.05953 -0.0471,-0.03969 -0.0769,-0.09674 -0.0273,-0.05953 -0.0273,-0.136425 0,-0.176113 0.13643,-0.2604482 0.13642,-0.086816 0.38447,-0.086816 h 0.2034 v -0.081855 q 0,-0.069453 -0.0248,-0.1116207 -0.0248,-0.044648 -0.0645,-0.066973 -0.0397,-0.024805 -0.0918,-0.032246 -0.0496,-0.00744 -0.10169,-0.00744 -0.18108,0 -0.30014,0.071933 l -0.0422,-0.084336 q 0.0695,-0.039687 0.15379,-0.059531 0.0843,-0.022324 0.18852,-0.022324 0.20091,0 0.29269,0.084336 0.0918,0.081855 0.0918,0.2182805 v 0.7218143 z m 0,-0.5407407 h -0.19348 q -0.2034,0 -0.31502,0.059531 -0.10914,0.059531 -0.10914,0.1984367 0,0.104179 0.0719,0.16123 0.0744,0.05705 0.17859,0.05705 0.11162,0 0.20588,-0.04713 0.0967,-0.04713 0.16123,-0.104179 z"
         style="stroke-width:0.248046"
         id="path849" />
      <path
         d="M 108.19993,10.466948 V 9.8096257 q 0,-0.1190621 -0.057,-0.1984368 -0.0571,-0.079375 -0.16868,-0.079375 -0.0694,0 -0.13146,0.027285 -0.0595,0.027285 -0.10666,0.071933 -0.0447,0.044648 -0.0719,0.1041793 -0.0248,0.057051 -0.0248,0.1190621 v 0.612674 h -0.1017 V 9.8096257 q 0,-0.1190621 -0.0521,-0.1984368 -0.0496,-0.079375 -0.17363,-0.079375 -0.0695,0 -0.13146,0.027285 -0.0595,0.027285 -0.10666,0.074414 -0.0447,0.044648 -0.0719,0.1041793 -0.0248,0.057051 -0.0248,0.1190621 v 0.6101936 h -0.1017 V 9.4722831 h 0.1017 v 0.1637104 q 0.0447,-0.086816 0.13394,-0.1389058 0.0893,-0.05457 0.20092,-0.05457 0.12899,0 0.2034,0.057051 0.0744,0.05457 0.1017,0.1438667 0.0521,-0.086816 0.14883,-0.1438667 0.0967,-0.057051 0.20835,-0.057051 0.16371,0 0.24557,0.1016989 0.0819,0.1016988 0.0819,0.2505264 v 0.6722051 z"
         style="stroke-width:0.248046"
         id="path851" />
      <path
         d="m 109.57724,9.9683751 q 0,0.1165819 -0.0422,0.2133199 -0.0397,0.09674 -0.11162,0.168671 -0.0719,0.06945 -0.16867,0.10914 -0.0943,0.03721 -0.2034,0.03721 -0.10914,0 -0.20588,-0.03721 -0.0943,-0.03969 -0.16619,-0.10914 -0.0719,-0.07193 -0.1141,-0.168671 -0.0397,-0.09674 -0.0397,-0.2133199 0,-0.1165816 0.0397,-0.2133195 0.0422,-0.096738 0.1141,-0.1661909 0.0719,-0.069453 0.16619,-0.1066597 0.0967,-0.039687 0.20588,-0.039687 0.10914,0 0.2034,0.039687 0.0967,0.037207 0.16867,0.1066597 0.0719,0.069453 0.11162,0.1661909 0.0422,0.096738 0.0422,0.2133195 z m -0.10666,0 q 0,-0.094257 -0.0323,-0.1736322 -0.0322,-0.079375 -0.0893,-0.1364253 -0.0546,-0.057051 -0.13147,-0.089296 -0.0769,-0.032246 -0.16619,-0.032246 -0.0893,0 -0.16619,0.032246 -0.0769,0.032246 -0.13394,0.089296 -0.0546,0.057051 -0.0868,0.1364253 -0.0322,0.079375 -0.0322,0.1736322 0,0.094258 0.0322,0.1736319 0.0323,0.07938 0.0868,0.138906 0.0571,0.05705 0.13394,0.0893 0.0769,0.03225 0.16619,0.03225 0.0893,0 0.16619,-0.03225 0.0769,-0.03225 0.13147,-0.0893 0.0571,-0.05953 0.0893,-0.138906 0.0323,-0.07937 0.0323,-0.1736319 z"
         style="stroke-width:0.248046"
         id="path853" />
      <path
         d="m 110.60225,10.466948 v -0.205879 q -0.0198,0.04465 -0.0595,0.0893 -0.0397,0.04217 -0.0918,0.07441 -0.0521,0.03225 -0.1141,0.05209 -0.062,0.01984 -0.12898,0.01984 -0.10914,0 -0.19596,-0.04217 -0.0868,-0.04217 -0.14635,-0.114101 -0.0595,-0.07193 -0.0918,-0.166191 -0.0323,-0.09426 -0.0323,-0.1984365 0,-0.1265035 0.0372,-0.2232414 0.0397,-0.099218 0.10666,-0.1686713 0.067,-0.069453 0.15627,-0.1041793 0.0893,-0.037207 0.18851,-0.037207 0.0645,0 0.12154,0.019844 0.0595,0.019844 0.10666,0.05209 0.0496,0.032246 0.0868,0.076894 0.0372,0.042168 0.0571,0.086816 V 8.6562118 h 0.1017 v 1.8107362 z m 0,-0.5010534 q 0,-0.081855 -0.0273,-0.1587494 -0.0273,-0.076894 -0.0794,-0.1364253 -0.0496,-0.062012 -0.12154,-0.096738 -0.0695,-0.037207 -0.15379,-0.037207 -0.16867,0 -0.27037,0.1165816 -0.1017,0.1141012 -0.1017,0.3150184 0,0.086816 0.0223,0.1661909 0.0248,0.07689 0.0695,0.136425 0.0471,0.05953 0.1141,0.09674 0.0695,0.03473 0.16123,0.03473 0.0843,0 0.15379,-0.03225 0.0719,-0.03473 0.12402,-0.09426 0.0521,-0.05953 0.0794,-0.138906 0.0298,-0.07937 0.0298,-0.1711514 z"
         style="stroke-width:0.248046"
         id="path855" />
    </g>
    <g
       aria-label="punc"
       id="punc"
       style="font-weight:300;font-size:2.48046px;font-family:Nobel-Light, Nobel;fill:#707070;stroke-width:0.248046">
      <path
         d="m 107.29191,14.914769 q 0,0.126504 -0.0397,0.225722 -0.0372,0.09674 -0.10418,0.166191 -0.067,0.06945 -0.15627,0.10666 -0.0893,0.03473 -0.18852,0.03473 -0.0645,0 -0.12402,-0.01984 -0.0595,-0.01984 -0.10914,-0.05209 -0.0471,-0.03225 -0.0843,-0.07441 -0.0347,-0.04465 -0.0546,-0.0893 v 0.649881 h -0.1017 v -1.438667 h 0.1017 v 0.205878 q 0.0198,-0.04465 0.0595,-0.08682 0.0397,-0.04465 0.0918,-0.07689 0.0521,-0.03225 0.1141,-0.05209 0.062,-0.01984 0.12899,-0.01984 0.10914,0 0.19595,0.04217 0.0868,0.04217 0.14635,0.114102 0.0595,0.07193 0.0918,0.16619 0.0322,0.09426 0.0322,0.198437 z m -0.10666,0.0074 q 0,-0.08682 -0.0248,-0.163711 -0.0223,-0.07937 -0.0695,-0.138906 -0.0446,-0.05953 -0.1141,-0.09426 -0.067,-0.03721 -0.15875,-0.03721 -0.0843,0 -0.15627,0.03473 -0.0695,0.03224 -0.12154,0.09178 -0.0521,0.05953 -0.0819,0.138905 -0.0273,0.07938 -0.0273,0.171152 0,0.08186 0.0273,0.158749 0.0273,0.0769 0.0769,0.138906 0.0521,0.05953 0.12155,0.09674 0.0695,0.03473 0.15627,0.03473 0.16867,0 0.27037,-0.114102 0.10169,-0.116581 0.10169,-0.317498 z"
         style="stroke-width:0.248046"
         id="path858" />
      <path
         d="m 108.2229,15.418303 v -0.163711 q -0.0471,0.08682 -0.13642,0.141386 -0.0868,0.05209 -0.19844,0.05209 -0.0868,0 -0.15627,-0.02728 -0.0695,-0.02729 -0.11658,-0.07441 -0.0471,-0.04713 -0.0719,-0.11162 -0.0248,-0.06449 -0.0248,-0.138906 v -0.672205 h 0.1017 v 0.657322 q 0,0.119062 0.0695,0.198437 0.0719,0.07937 0.2034,0.07937 0.0744,0 0.13394,-0.02977 0.062,-0.02977 0.10418,-0.07441 0.0447,-0.04713 0.067,-0.104179 0.0248,-0.05953 0.0248,-0.116582 v -0.610193 h 0.1017 v 0.994665 z"
         style="stroke-width:0.248046"
         id="path860" />
      <path
         d="m 109.34969,15.418303 v -0.657322 q 0,-0.119062 -0.0719,-0.198437 -0.0695,-0.07938 -0.20092,-0.07938 -0.0744,0 -0.13643,0.02977 -0.0595,0.02976 -0.10418,0.07689 -0.0422,0.04465 -0.067,0.104179 -0.0223,0.05705 -0.0223,0.114101 v 0.610194 h -0.1017 v -0.994665 h 0.1017 v 0.16371 q 0.0471,-0.08682 0.13394,-0.138905 0.0893,-0.05457 0.20092,-0.05457 0.0868,0 0.15627,0.02729 0.0695,0.02728 0.11658,0.07441 0.0471,0.04713 0.0719,0.111621 0.0248,0.06449 0.0248,0.138906 v 0.672205 z"
         style="stroke-width:0.248046"
         id="path862" />
      <path
         d="m 110.59306,15.202503 q -0.067,0.104179 -0.17363,0.176112 -0.10666,0.06945 -0.25053,0.06945 -0.10666,0 -0.19844,-0.03969 -0.0893,-0.04217 -0.15627,-0.114101 -0.0645,-0.07193 -0.1017,-0.168672 -0.0372,-0.09674 -0.0372,-0.208358 0,-0.109141 0.0372,-0.203398 0.0372,-0.09674 0.1017,-0.166191 0.067,-0.07193 0.15627,-0.111621 0.0893,-0.04217 0.191,-0.04217 0.0818,0 0.14635,0.01736 0.0645,0.01736 0.1141,0.04465 0.0496,0.02729 0.0868,0.06201 0.0397,0.03473 0.067,0.06697 l -0.0818,0.06449 q -0.0595,-0.07441 -0.13643,-0.116582 -0.0769,-0.04465 -0.18107,-0.04465 -0.0868,0 -0.16123,0.03473 -0.0719,0.03224 -0.12402,0.09178 -0.0521,0.05705 -0.0819,0.133944 -0.0273,0.0769 -0.0273,0.163711 0,0.0893 0.0273,0.171151 0.0298,0.07938 0.0794,0.141387 0.0521,0.05953 0.12154,0.09426 0.0695,0.03473 0.15131,0.03473 0.11906,0 0.2034,-0.05457 0.0843,-0.05457 0.14882,-0.148827 l 0.0794,0.05209 z"
         style="stroke-width:0.248046"
         id="path864" />
    </g>
  </g>
</svg>
