<?xml version="1.0" encoding="UTF-8" standalone="no"?>
<svg
   xmlns:dc="http://purl.org/dc/elements/1.1/"
   xmlns:cc="http://creativecommons.org/ns#"
   xmlns:rdf="http://www.w3.org/1999/02/22-rdf-syntax-ns#"
   xmlns:svg="http://www.w3.org/2000/svg"
   xmlns="http://www.w3.org/2000/svg"
   xmlns:sodipodi="http://sodipodi.sourceforge.net/DTD/sodipodi-0.dtd"
   xmlns:inkscape="http://www.inkscape.org/namespaces/inkscape"
   width="35.711208mm"
   height="5.202363mm"
   viewBox="0 0 35.71121 5.2023632"
   version="1.1"
   id="svg1888"
   inkscape:version="1.0.1 (c497b03c, 2020-09-10)"
   sodipodi:docname="red-artificial.svg">
  <defs
     id="defs1882" />
  <sodipodi:namedview
     id="base"
     pagecolor="#ffffff"
     bordercolor="#666666"
     borderopacity="1.0"
     inkscape:pageopacity="0.0"
     inkscape:pageshadow="2"
     inkscape:zoom="2.8284272"
     inkscape:cx="74.238431"
     inkscape:cy="-38.944785"
     inkscape:document-units="mm"
     inkscape:current-layer="layer1"
     inkscape:document-rotation="0"
     showgrid="false"
     inkscape:window-width="1252"
     inkscape:window-height="915"
     inkscape:window-x="0"
     inkscape:window-y="211"
     inkscape:window-maximized="0" />
  <metadata
     id="metadata1885">
    <rdf:RDF>
      <cc:Work
         rdf:about="">
        <dc:format>image/svg+xml</dc:format>
        <dc:type
           rdf:resource="http://purl.org/dc/dcmitype/StillImage" />
        <dc:title />
      </cc:Work>
    </rdf:RDF>
  </metadata>
  <g
     inkscape:groupmode="layer"
     id="layer2"
     inkscape:label="Layer 2"
     style="display:none"
     transform="translate(-5.850368,-7.5681765)">
    <rect
       style="display:inline;fill:#000000;stroke-width:0.226627;stroke-linecap:round;stroke-linejoin:round;stroke-miterlimit:10"
       id="rect2461"
       width="60.471661"
       height="29.626997"
       x="-15.386123"
       y="-9.5037279"
       ry="6.8264742" />
  </g>
  <g
     inkscape:label="Layer 1"
     inkscape:groupmode="layer"
     id="layer1"
     transform="translate(-95.940993,-16.200643)"
     style="display:inline">
    <path
       id="Path_5"
       data-name="Path 5"
       d="m 96.796788,20.080221 v -1.518708 h 34.061662 v 1.518708"
       fill="none"
       stroke="#707070"
       stroke-width="0.132291" />
    <path
       id="Polygon_6"
       data-name="Polygon 6"
       d="M 96.734744,21.403006 95.940993,20.08009 h 1.5875 z"
       fill="#707070"
       style="stroke-width:0.132291" />
    <path
       id="Polygon_5"
       data-name="Polygon 5"
       d="m 113.03903,21.403006 -0.79375,-1.322916 h 1.5875 z"
       fill="#707070"
       style="stroke-width:0.132291" />
    <path
       id="Polygon_7"
       data-name="Polygon 7"
       d="M 130.85845,21.403006 130.0647,20.08009 h 1.5875 z"
       fill="#707070"
       style="stroke-width:0.132291" />
    <g
       aria-label="compound"
       id="compound"
       style="font-weight:300;font-size:2.64582px;font-family:Nobel-Light, Nobel;opacity:0.994;fill:#707070;stroke-width:0.264582">
      <path
         d="m 99.758732,17.901905 q -0.07144,0.111125 -0.185207,0.187853 -0.11377,0.07408 -0.267228,0.07408 -0.11377,0 -0.211666,-0.04233 -0.09525,-0.04498 -0.166686,-0.121707 -0.06879,-0.07673 -0.108479,-0.179916 -0.03969,-0.103187 -0.03969,-0.222249 0,-0.116416 0.03969,-0.216957 0.03969,-0.103187 0.108479,-0.17727 0.07144,-0.07673 0.166686,-0.119062 0.09525,-0.04498 0.203728,-0.04498 0.08731,0 0.156104,0.01852 0.06879,0.01852 0.121708,0.04762 0.05292,0.0291 0.0926,0.06615 0.04233,0.03704 0.07144,0.07144 l -0.08731,0.06879 q -0.0635,-0.07937 -0.14552,-0.124353 -0.08202,-0.04763 -0.193145,-0.04763 -0.0926,0 -0.171978,0.03704 -0.07673,0.03439 -0.132291,0.0979 -0.05556,0.06085 -0.08731,0.142874 -0.0291,0.08202 -0.0291,0.174624 0,0.09525 0.0291,0.182562 0.03175,0.08467 0.08467,0.150812 0.05556,0.0635 0.129645,0.100541 0.07408,0.03704 0.161395,0.03704 0.127,0 0.216958,-0.05821 0.08996,-0.05821 0.158749,-0.158749 l 0.08467,0.05556 z"
         style="stroke-width:0.264582"
         id="path866" />
      <path
         d="m 101.03331,17.600282 q 0,0.124353 -0.045,0.22754 -0.0423,0.103187 -0.11907,0.179916 -0.0767,0.07408 -0.17991,0.116416 -0.10054,0.03969 -0.21696,0.03969 -0.11642,0 -0.2196,-0.03969 -0.10054,-0.04233 -0.17727,-0.116416 -0.07673,-0.07673 -0.12171,-0.179916 -0.04233,-0.103187 -0.04233,-0.22754 0,-0.124354 0.04233,-0.227541 0.04498,-0.103187 0.12171,-0.17727 0.0767,-0.07408 0.17727,-0.11377 0.10318,-0.04233 0.2196,-0.04233 0.11642,0 0.21696,0.04233 0.10318,0.03969 0.17991,0.11377 0.0767,0.07408 0.11907,0.17727 0.045,0.103187 0.045,0.227541 z m -0.11377,0 q 0,-0.100541 -0.0344,-0.185208 -0.0344,-0.08467 -0.0952,-0.14552 -0.0582,-0.06085 -0.14023,-0.09525 -0.082,-0.0344 -0.17727,-0.0344 -0.0952,0 -0.17727,0.0344 -0.082,0.03439 -0.14287,0.09525 -0.0582,0.06085 -0.0926,0.14552 -0.0344,0.08467 -0.0344,0.185208 0,0.100541 0.0344,0.185207 0.0344,0.08467 0.0926,0.148166 0.0609,0.06085 0.14287,0.09525 0.082,0.03439 0.17727,0.03439 0.0953,0 0.17727,-0.03439 0.082,-0.0344 0.14023,-0.09525 0.0609,-0.0635 0.0952,-0.148166 0.0344,-0.08467 0.0344,-0.185207 z"
         style="stroke-width:0.264582"
         id="path868" />
      <path
         d="m 102.70609,18.132092 v -0.701143 q 0,-0.126999 -0.0609,-0.211665 -0.0609,-0.08467 -0.17992,-0.08467 -0.0741,0 -0.14023,0.0291 -0.0635,0.0291 -0.11377,0.07673 -0.0476,0.04763 -0.0767,0.111125 -0.0265,0.06085 -0.0265,0.126999 v 0.653518 h -0.10848 v -0.701143 q 0,-0.126999 -0.0556,-0.211665 -0.0529,-0.08467 -0.18521,-0.08467 -0.0741,0 -0.14023,0.0291 -0.0635,0.0291 -0.11377,0.07938 -0.0476,0.04763 -0.0767,0.111124 -0.0265,0.06085 -0.0265,0.127 v 0.650872 h -0.10847 v -1.060974 h 0.10847 v 0.174624 q 0.0476,-0.0926 0.14288,-0.148166 0.0953,-0.05821 0.21431,-0.05821 0.13758,0 0.21696,0.06085 0.0794,0.05821 0.10848,0.153457 0.0556,-0.0926 0.15874,-0.153457 0.10319,-0.06085 0.22225,-0.06085 0.17463,0 0.26194,0.108479 0.0873,0.108478 0.0873,0.267227 v 0.717018 z"
         style="stroke-width:0.264582"
         id="path870" />
      <path
         d="m 104.16464,17.59499 q 0,0.134937 -0.0423,0.24077 -0.0397,0.103187 -0.11113,0.17727 -0.0714,0.07408 -0.16668,0.11377 -0.0952,0.03704 -0.20108,0.03704 -0.0688,0 -0.1323,-0.02117 -0.0635,-0.02117 -0.11641,-0.05556 -0.0503,-0.0344 -0.09,-0.07937 -0.037,-0.04763 -0.0582,-0.09525 v 0.693205 h -0.10848 v -1.534575 h 0.10848 v 0.219603 q 0.0212,-0.04763 0.0635,-0.0926 0.0423,-0.04763 0.0979,-0.08202 0.0556,-0.0344 0.12171,-0.05556 0.0661,-0.02117 0.13758,-0.02117 0.11641,0 0.20902,0.04498 0.0926,0.04498 0.1561,0.121708 0.0635,0.07673 0.0979,0.177269 0.0344,0.100542 0.0344,0.211666 z m -0.11377,0.0079 q 0,-0.0926 -0.0265,-0.174625 -0.0238,-0.08467 -0.0741,-0.148165 -0.0476,-0.0635 -0.12171,-0.100542 -0.0714,-0.03969 -0.16933,-0.03969 -0.09,0 -0.16669,0.03704 -0.0741,0.03439 -0.12964,0.0979 -0.0556,0.0635 -0.0873,0.148166 -0.0291,0.08467 -0.0291,0.182561 0,0.08731 0.0291,0.169333 0.0291,0.08202 0.082,0.148166 0.0556,0.0635 0.12964,0.103187 0.0741,0.03704 0.16669,0.03704 0.17991,0 0.28839,-0.121708 0.10848,-0.124353 0.10848,-0.338664 z"
         style="stroke-width:0.264582"
         id="path872" />
      <path
         d="m 105.46196,17.600282 q 0,0.124353 -0.045,0.22754 -0.0423,0.103187 -0.11906,0.179916 -0.0767,0.07408 -0.17991,0.116416 -0.10055,0.03969 -0.21696,0.03969 -0.11642,0 -0.2196,-0.03969 -0.10055,-0.04233 -0.17727,-0.116416 -0.0767,-0.07673 -0.12171,-0.179916 -0.0423,-0.103187 -0.0423,-0.22754 0,-0.124354 0.0423,-0.227541 0.045,-0.103187 0.12171,-0.17727 0.0767,-0.07408 0.17727,-0.11377 0.10318,-0.04233 0.2196,-0.04233 0.11641,0 0.21696,0.04233 0.10318,0.03969 0.17991,0.11377 0.0767,0.07408 0.11906,0.17727 0.045,0.103187 0.045,0.227541 z m -0.11377,0 q 0,-0.100541 -0.0344,-0.185208 -0.0344,-0.08467 -0.0953,-0.14552 -0.0582,-0.06085 -0.14023,-0.09525 -0.082,-0.0344 -0.17727,-0.0344 -0.0952,0 -0.17727,0.0344 -0.082,0.03439 -0.14288,0.09525 -0.0582,0.06085 -0.0926,0.14552 -0.0344,0.08467 -0.0344,0.185208 0,0.100541 0.0344,0.185207 0.0344,0.08467 0.0926,0.148166 0.0609,0.06085 0.14288,0.09525 0.082,0.03439 0.17727,0.03439 0.0953,0 0.17727,-0.03439 0.082,-0.0344 0.14023,-0.09525 0.0609,-0.0635 0.0953,-0.148166 0.0344,-0.08467 0.0344,-0.185207 z"
         style="stroke-width:0.264582"
         id="path874" />
      <path
         d="m 106.45476,18.132092 v -0.174625 q -0.0503,0.0926 -0.14552,0.150812 -0.0926,0.05556 -0.21166,0.05556 -0.0926,0 -0.16669,-0.0291 -0.0741,-0.0291 -0.12435,-0.07937 -0.0503,-0.05027 -0.0767,-0.119062 -0.0265,-0.06879 -0.0265,-0.148166 v -0.717017 h 0.10848 v 0.701142 q 0,0.126999 0.0741,0.211666 0.0767,0.08467 0.21696,0.08467 0.0794,0 0.14287,-0.03175 0.0662,-0.03175 0.11113,-0.07937 0.0476,-0.05027 0.0714,-0.111124 0.0264,-0.0635 0.0264,-0.124354 v -0.650871 h 0.10848 v 1.060974 z"
         style="stroke-width:0.264582"
         id="path876" />
      <path
         d="m 107.65667,18.132092 v -0.701143 q 0,-0.126999 -0.0767,-0.211665 -0.0741,-0.08467 -0.21431,-0.08467 -0.0794,0 -0.14552,0.03175 -0.0635,0.03175 -0.11113,0.08202 -0.045,0.04762 -0.0714,0.111124 -0.0238,0.06085 -0.0238,0.121708 v 0.650872 h -0.10848 v -1.060974 h 0.10848 v 0.174624 q 0.0503,-0.0926 0.14287,-0.148166 0.0952,-0.05821 0.21431,-0.05821 0.0926,0 0.16669,0.0291 0.0741,0.0291 0.12435,0.07937 0.0503,0.05027 0.0767,0.119061 0.0265,0.06879 0.0265,0.148166 v 0.717018 z"
         style="stroke-width:0.264582"
         id="path878" />
      <path
         d="m 108.92207,18.132092 v -0.219604 q -0.0212,0.04763 -0.0635,0.09525 -0.0423,0.04498 -0.0979,0.07937 -0.0556,0.03439 -0.12171,0.05556 -0.0661,0.02117 -0.13758,0.02117 -0.11642,0 -0.20902,-0.04498 -0.0926,-0.04498 -0.1561,-0.121707 -0.0635,-0.07673 -0.0979,-0.17727 -0.0344,-0.100541 -0.0344,-0.211666 0,-0.134937 0.0397,-0.238124 0.0423,-0.105832 0.11377,-0.179915 0.0714,-0.07408 0.16669,-0.111125 0.0953,-0.03969 0.20108,-0.03969 0.0688,0 0.12965,0.02117 0.0635,0.02117 0.11377,0.05556 0.0529,0.03439 0.0926,0.08202 0.0397,0.04498 0.0609,0.0926 v -1.090078 h 0.10848 v 1.931449 z m 0,-0.534456 q 0,-0.08731 -0.0291,-0.169333 -0.0291,-0.08202 -0.0847,-0.14552 -0.0529,-0.06614 -0.12964,-0.103187 -0.0741,-0.03969 -0.16404,-0.03969 -0.17992,0 -0.2884,0.124354 -0.10847,0.121707 -0.10847,0.336019 0,0.0926 0.0238,0.17727 0.0265,0.08202 0.0741,0.14552 0.0503,0.0635 0.12171,0.103187 0.0741,0.03704 0.17198,0.03704 0.0899,0 0.16404,-0.03439 0.0767,-0.03704 0.13229,-0.100542 0.0556,-0.0635 0.0847,-0.148166 0.0318,-0.08467 0.0318,-0.182561 z"
         style="stroke-width:0.264582"
         id="path880" />
    </g>
    <g
       aria-label="compound"
       id="compound-2"
       style="font-weight:300;font-size:2.64582px;font-family:Nobel-Light, Nobel;opacity:0.994;fill:#707070;stroke-width:0.264582">
      <path
         d="m 118.01497,17.901905 q -0.0714,0.111125 -0.18521,0.187853 -0.11377,0.07408 -0.26723,0.07408 -0.11377,0 -0.21167,-0.04233 -0.0952,-0.04498 -0.16668,-0.121707 -0.0688,-0.07673 -0.10848,-0.179916 -0.0397,-0.103187 -0.0397,-0.222249 0,-0.116416 0.0397,-0.216957 0.0397,-0.103187 0.10848,-0.17727 0.0714,-0.07673 0.16668,-0.119062 0.0953,-0.04498 0.20373,-0.04498 0.0873,0 0.15611,0.01852 0.0688,0.01852 0.1217,0.04762 0.0529,0.0291 0.0926,0.06615 0.0423,0.03704 0.0714,0.07144 l -0.0873,0.06879 q -0.0635,-0.07937 -0.14552,-0.124353 -0.082,-0.04763 -0.19314,-0.04763 -0.0926,0 -0.17198,0.03704 -0.0767,0.03439 -0.13229,0.0979 -0.0556,0.06085 -0.0873,0.142874 -0.0291,0.08202 -0.0291,0.174624 0,0.09525 0.0291,0.182562 0.0318,0.08467 0.0847,0.150812 0.0556,0.0635 0.12965,0.100541 0.0741,0.03704 0.16139,0.03704 0.127,0 0.21696,-0.05821 0.09,-0.05821 0.15875,-0.158749 l 0.0847,0.05556 z"
         style="stroke-width:0.264582"
         id="path849" />
      <path
         d="m 119.28955,17.600282 q 0,0.124353 -0.045,0.22754 -0.0423,0.103187 -0.11906,0.179916 -0.0767,0.07408 -0.17992,0.116416 -0.10054,0.03969 -0.21696,0.03969 -0.11641,0 -0.2196,-0.03969 -0.10054,-0.04233 -0.17727,-0.116416 -0.0767,-0.07673 -0.12171,-0.179916 -0.0423,-0.103187 -0.0423,-0.22754 0,-0.124354 0.0423,-0.227541 0.045,-0.103187 0.12171,-0.17727 0.0767,-0.07408 0.17727,-0.11377 0.10319,-0.04233 0.2196,-0.04233 0.11642,0 0.21696,0.04233 0.10319,0.03969 0.17992,0.11377 0.0767,0.07408 0.11906,0.17727 0.045,0.103187 0.045,0.227541 z m -0.11377,0 q 0,-0.100541 -0.0344,-0.185208 -0.0344,-0.08467 -0.0952,-0.14552 -0.0582,-0.06085 -0.14023,-0.09525 -0.082,-0.0344 -0.17727,-0.0344 -0.0952,0 -0.17727,0.0344 -0.082,0.03439 -0.14287,0.09525 -0.0582,0.06085 -0.0926,0.14552 -0.0344,0.08467 -0.0344,0.185208 0,0.100541 0.0344,0.185207 0.0344,0.08467 0.0926,0.148166 0.0609,0.06085 0.14287,0.09525 0.082,0.03439 0.17727,0.03439 0.0953,0 0.17727,-0.03439 0.082,-0.0344 0.14023,-0.09525 0.0609,-0.0635 0.0952,-0.148166 0.0344,-0.08467 0.0344,-0.185207 z"
         style="stroke-width:0.264582"
         id="path851" />
      <path
         d="m 120.96233,18.132092 v -0.701143 q 0,-0.126999 -0.0609,-0.211665 -0.0609,-0.08467 -0.17991,-0.08467 -0.0741,0 -0.14023,0.0291 -0.0635,0.0291 -0.11377,0.07673 -0.0476,0.04763 -0.0767,0.111125 -0.0265,0.06085 -0.0265,0.126999 v 0.653518 h -0.10848 v -0.701143 q 0,-0.126999 -0.0556,-0.211665 -0.0529,-0.08467 -0.18521,-0.08467 -0.0741,0 -0.14023,0.0291 -0.0635,0.0291 -0.11377,0.07938 -0.0476,0.04763 -0.0767,0.111124 -0.0265,0.06085 -0.0265,0.127 v 0.650872 h -0.10848 v -1.060974 h 0.10848 v 0.174624 q 0.0476,-0.0926 0.14287,-0.148166 0.0953,-0.05821 0.21431,-0.05821 0.13759,0 0.21696,0.06085 0.0794,0.05821 0.10848,0.153457 0.0556,-0.0926 0.15875,-0.153457 0.10318,-0.06085 0.22225,-0.06085 0.17462,0 0.26193,0.108479 0.0873,0.108478 0.0873,0.267227 v 0.717018 z"
         style="stroke-width:0.264582"
         id="path853" />
      <path
         d="m 122.42088,17.59499 q 0,0.134937 -0.0423,0.24077 -0.0397,0.103187 -0.11112,0.17727 -0.0714,0.07408 -0.16669,0.11377 -0.0952,0.03704 -0.20108,0.03704 -0.0688,0 -0.13229,-0.02117 -0.0635,-0.02117 -0.11642,-0.05556 -0.0503,-0.0344 -0.09,-0.07937 -0.037,-0.04763 -0.0582,-0.09525 v 0.693205 h -0.10848 v -1.534575 h 0.10848 v 0.219603 q 0.0212,-0.04763 0.0635,-0.0926 0.0423,-0.04763 0.0979,-0.08202 0.0556,-0.0344 0.12171,-0.05556 0.0661,-0.02117 0.13758,-0.02117 0.11642,0 0.20902,0.04498 0.0926,0.04498 0.1561,0.121708 0.0635,0.07673 0.0979,0.177269 0.0344,0.100542 0.0344,0.211666 z m -0.11377,0.0079 q 0,-0.0926 -0.0265,-0.174625 -0.0238,-0.08467 -0.0741,-0.148165 -0.0476,-0.0635 -0.1217,-0.100542 -0.0714,-0.03969 -0.16934,-0.03969 -0.09,0 -0.16668,0.03704 -0.0741,0.03439 -0.12965,0.0979 -0.0556,0.0635 -0.0873,0.148166 -0.0291,0.08467 -0.0291,0.182561 0,0.08731 0.0291,0.169333 0.0291,0.08202 0.082,0.148166 0.0556,0.0635 0.12965,0.103187 0.0741,0.03704 0.16668,0.03704 0.17992,0 0.2884,-0.121708 0.10848,-0.124353 0.10848,-0.338664 z"
         style="stroke-width:0.264582"
         id="path855" />
      <path
         d="m 123.7182,17.600282 q 0,0.124353 -0.045,0.22754 -0.0423,0.103187 -0.11907,0.179916 -0.0767,0.07408 -0.17991,0.116416 -0.10054,0.03969 -0.21696,0.03969 -0.11641,0 -0.2196,-0.03969 -0.10054,-0.04233 -0.17727,-0.116416 -0.0767,-0.07673 -0.12171,-0.179916 -0.0423,-0.103187 -0.0423,-0.22754 0,-0.124354 0.0423,-0.227541 0.045,-0.103187 0.12171,-0.17727 0.0767,-0.07408 0.17727,-0.11377 0.10319,-0.04233 0.2196,-0.04233 0.11642,0 0.21696,0.04233 0.10319,0.03969 0.17991,0.11377 0.0767,0.07408 0.11907,0.17727 0.045,0.103187 0.045,0.227541 z m -0.11377,0 q 0,-0.100541 -0.0344,-0.185208 -0.0344,-0.08467 -0.0953,-0.14552 -0.0582,-0.06085 -0.14023,-0.09525 -0.082,-0.0344 -0.17727,-0.0344 -0.0953,0 -0.17727,0.0344 -0.082,0.03439 -0.14287,0.09525 -0.0582,0.06085 -0.0926,0.14552 -0.0344,0.08467 -0.0344,0.185208 0,0.100541 0.0344,0.185207 0.0344,0.08467 0.0926,0.148166 0.0608,0.06085 0.14287,0.09525 0.082,0.03439 0.17727,0.03439 0.0952,0 0.17727,-0.03439 0.082,-0.0344 0.14023,-0.09525 0.0609,-0.0635 0.0953,-0.148166 0.0344,-0.08467 0.0344,-0.185207 z"
         style="stroke-width:0.264582"
         id="path857" />
      <path
         d="m 124.711,18.132092 v -0.174625 q -0.0503,0.0926 -0.14552,0.150812 -0.0926,0.05556 -0.21167,0.05556 -0.0926,0 -0.16668,-0.0291 -0.0741,-0.0291 -0.12436,-0.07937 -0.0503,-0.05027 -0.0767,-0.119062 -0.0264,-0.06879 -0.0264,-0.148166 v -0.717017 h 0.10847 v 0.701142 q 0,0.126999 0.0741,0.211666 0.0767,0.08467 0.21695,0.08467 0.0794,0 0.14288,-0.03175 0.0661,-0.03175 0.11112,-0.07937 0.0476,-0.05027 0.0714,-0.111124 0.0265,-0.0635 0.0265,-0.124354 v -0.650871 h 0.10848 v 1.060974 z"
         style="stroke-width:0.264582"
         id="path859" />
      <path
         d="m 125.9129,18.132092 v -0.701143 q 0,-0.126999 -0.0767,-0.211665 -0.0741,-0.08467 -0.21431,-0.08467 -0.0794,0 -0.14552,0.03175 -0.0635,0.03175 -0.11112,0.08202 -0.045,0.04762 -0.0714,0.111124 -0.0238,0.06085 -0.0238,0.121708 v 0.650872 h -0.10848 v -1.060974 h 0.10848 v 0.174624 q 0.0503,-0.0926 0.14287,-0.148166 0.0952,-0.05821 0.21431,-0.05821 0.0926,0 0.16669,0.0291 0.0741,0.0291 0.12435,0.07937 0.0503,0.05027 0.0767,0.119061 0.0265,0.06879 0.0265,0.148166 v 0.717018 z"
         style="stroke-width:0.264582"
         id="path861" />
      <path
         d="m 127.17831,18.132092 v -0.219604 q -0.0212,0.04763 -0.0635,0.09525 -0.0423,0.04498 -0.0979,0.07937 -0.0556,0.03439 -0.1217,0.05556 -0.0662,0.02117 -0.13759,0.02117 -0.11641,0 -0.20902,-0.04498 -0.0926,-0.04498 -0.1561,-0.121707 -0.0635,-0.07673 -0.0979,-0.17727 -0.0344,-0.100541 -0.0344,-0.211666 0,-0.134937 0.0397,-0.238124 0.0423,-0.105832 0.11377,-0.179915 0.0714,-0.07408 0.16668,-0.111125 0.0953,-0.03969 0.20108,-0.03969 0.0688,0 0.12965,0.02117 0.0635,0.02117 0.11377,0.05556 0.0529,0.03439 0.0926,0.08202 0.0397,0.04498 0.0609,0.0926 v -1.090078 h 0.10848 v 1.931449 z m 0,-0.534456 q 0,-0.08731 -0.0291,-0.169333 -0.0291,-0.08202 -0.0847,-0.14552 -0.0529,-0.06614 -0.12965,-0.103187 -0.0741,-0.03969 -0.16404,-0.03969 -0.17991,0 -0.28839,0.124354 -0.10848,0.121707 -0.10848,0.336019 0,0.0926 0.0238,0.17727 0.0265,0.08202 0.0741,0.14552 0.0503,0.0635 0.12171,0.103187 0.0741,0.03704 0.17198,0.03704 0.09,0 0.16404,-0.03439 0.0767,-0.03704 0.13229,-0.100542 0.0556,-0.0635 0.0847,-0.148166 0.0318,-0.08467 0.0318,-0.182561 z"
         style="stroke-width:0.264582"
         id="path863" />
    </g>
    <path
       id="Path_6"
       data-name="Path 6"
       d="m 96.796788,20.080221 v -1.518708 h 16.242242 v 1.518708"
       fill="none"
       stroke="#707070"
       stroke-width="0.132291" />
  </g>
</svg>
