<?xml version="1.0" encoding="UTF-8" standalone="no"?>
<svg
   xmlns:dc="http://purl.org/dc/elements/1.1/"
   xmlns:cc="http://creativecommons.org/ns#"
   xmlns:rdf="http://www.w3.org/1999/02/22-rdf-syntax-ns#"
   xmlns:svg="http://www.w3.org/2000/svg"
   xmlns="http://www.w3.org/2000/svg"
   xmlns:sodipodi="http://sodipodi.sourceforge.net/DTD/sodipodi-0.dtd"
   xmlns:inkscape="http://www.inkscape.org/namespaces/inkscape"
   width="76.73616mm"
   height="16.454519mm"
   viewBox="0 0 76.73616 16.454519"
   version="1.1"
   id="svg2687"
   inkscape:version="1.0.1 (c497b03c, 2020-09-10)"
   sodipodi:docname="ticker.svg"
   inkscape:export-filename="/Users/existentialterror/Desktop/LiteratAI-Felicity/Literat-ai/img/ticker.png"
   inkscape:export-xdpi="73"
   inkscape:export-ydpi="73">
  <defs
     id="defs2681" />
  <sodipodi:namedview
     id="base"
     pagecolor="#ffffff"
     bordercolor="#666666"
     borderopacity="1.0"
     inkscape:pageopacity="0.0"
     inkscape:pageshadow="2"
     inkscape:zoom="7.9195959"
     inkscape:cx="104.19823"
     inkscape:cy="31.348034"
     inkscape:document-units="mm"
     inkscape:current-layer="layer1"
     inkscape:document-rotation="0"
     showgrid="false"
     showguides="true"
     inkscape:guide-bbox="true"
     inkscape:window-width="1902"
     inkscape:window-height="892"
     inkscape:window-x="0"
     inkscape:window-y="211"
     inkscape:window-maximized="0">
    <sodipodi:guide
       position="35.954039,13.581378"
       orientation="1,0"
       id="guide3437" />
    <sodipodi:guide
       position="40.93392,3.5531865e-06"
       orientation="0,-1"
       id="guide924" />
    <sodipodi:guide
       position="39.021351,15.986798"
       orientation="0,-1"
       id="guide964" />
  </sodipodi:namedview>
  <metadata
     id="metadata2684">
    <rdf:RDF>
      <cc:Work
         rdf:about="">
        <dc:format>image/svg+xml</dc:format>
        <dc:type
           rdf:resource="http://purl.org/dc/dcmitype/StillImage" />
        <dc:title />
      </cc:Work>
    </rdf:RDF>
  </metadata>
  <g
     inkscape:groupmode="layer"
     id="layer2"
     inkscape:label="Layer 2"
     transform="translate(4.5498689)"
     style="display:none">
    <rect
       style="fill:#000000;stroke-width:0.529;stroke-linecap:round;stroke-linejoin:round;stroke-miterlimit:10"
       id="rect874"
       width="98.422005"
       height="45.435822"
       x="-13.302946"
       y="-12.762119"
       ry="20.379293" />
  </g>
  <g
     inkscape:label="Layer 1"
     inkscape:groupmode="layer"
     id="layer1"
     transform="translate(-107.52365,-103.6537)">
    <path
       id="Shape_1-2"
       data-name="Shape 1"
       d="m 148.42386,107.3252 1.00251,-2.45084 1.03611,0.40852 0.90249,0.068 0.83555,-1.15729 0.56806,0.9525 0.93584,0.34052 0.96916,0.81703 0.8689,0.81703 0.83555,0.9525 0.86889,0.47625 0.83529,0.40852 0.53472,0.13626 0.70194,0.54478 0.56806,0.61277 1.00278,0.47625 0.66833,0.40852 0.56806,0.13626 1.20333,0.13626 0.50112,1.02129 0.50271,0.20426 1.20332,0.61278 1.20306,-1.63407 1.40362,1.36155 0.80221,0.40851 0.73502,0.40852 0.73554,0.0683 1.57083,0.54451 1.63777,-0.81703 1.06945,-1.02129 1.50415,-0.27226 1.43722,1.49781 0.93557,-1.08929 v 6.81011 H 148.4572 Z"
       fill="none"
       style="stroke-width:0.264583" />
    <g
       aria-label="NY Times"
       id="NY_Times"
       style="font-weight:700;font-size:5.02708px;font-family:Nobel-Bold, Nobel;fill:#ffffff;stroke-width:0.264583">
      <path
         d="m 128.66843,107.83523 -2.38284,-3.3782 q 0,0.0352 0.005,0.0804 0,0.0402 0,0.0905 0.005,0.0452 0.005,0.10054 v 3.10674 h -0.22621 v -3.66977 h 0.28151 l 2.36273,3.36312 q -0.005,-0.0352 -0.005,-0.0804 -0.005,-0.0402 -0.005,-0.0855 0,-0.0503 0,-0.10557 v -3.09165 h 0.22621 v 3.66977 z"
         style="font-style:normal;font-variant:normal;font-weight:normal;font-stretch:normal;font-family:Nobel;-inkscape-font-specification:Nobel;stroke-width:0.264583"
         id="path902" />
      <path
         d="m 131.01364,106.0858 v 1.74943 h -0.22622 v -1.75445 l -1.3171,-1.91532 h 0.26141 l 1.18137,1.70921 1.17633,-1.70921 h 0.25638 z"
         style="font-style:normal;font-variant:normal;font-weight:normal;font-stretch:normal;font-family:Nobel;-inkscape-font-specification:Nobel;stroke-width:0.264583"
         id="path904" />
      <path
         d="m 134.80468,104.36654 v 3.46869 h -0.22621 v -3.46869 h -0.93504 v -0.20108 h 2.09126 v 0.20108 z"
         style="font-style:normal;font-variant:normal;font-weight:normal;font-stretch:normal;font-family:Nobel;-inkscape-font-specification:Nobel;stroke-width:0.264583"
         id="path906" />
      <path
         d="m 135.6091,105.25634 v -0.40217 h 0.20611 v 0.40217 z m 0,2.57889 v -2.01586 h 0.20611 v 2.01586 z"
         style="font-style:normal;font-variant:normal;font-weight:normal;font-stretch:normal;font-family:Nobel;-inkscape-font-specification:Nobel;stroke-width:0.264583"
         id="path908" />
      <path
         d="m 139.15484,107.83523 v -1.33218 q 0,-0.2413 -0.11563,-0.40216 -0.11562,-0.16087 -0.34184,-0.16087 -0.14076,0 -0.26643,0.0553 -0.12065,0.0553 -0.21617,0.14578 -0.0905,0.0905 -0.14578,0.21114 -0.0503,0.11562 -0.0503,0.2413 v 1.24169 h -0.20611 v -1.33218 q 0,-0.2413 -0.10557,-0.40216 -0.10054,-0.16087 -0.3519,-0.16087 -0.14076,0 -0.26643,0.0553 -0.12065,0.0553 -0.21617,0.15081 -0.0905,0.0905 -0.14578,0.21114 -0.0503,0.11562 -0.0503,0.2413 v 1.23666 h -0.20611 v -2.01586 h 0.20611 v 0.33179 q 0.0905,-0.17595 0.27146,-0.28152 0.18097,-0.1106 0.40719,-0.1106 0.26141,0 0.41222,0.11563 0.15081,0.11059 0.20611,0.29157 0.10557,-0.17595 0.30163,-0.29157 0.19605,-0.11563 0.42227,-0.11563 0.33179,0 0.49768,0.20611 0.1659,0.20611 0.1659,0.50774 v 1.36234 z"
         style="font-style:normal;font-variant:normal;font-weight:normal;font-stretch:normal;font-family:Nobel;-inkscape-font-specification:Nobel;stroke-width:0.264583"
         id="path910" />
      <path
         d="m 140.03088,106.79965 q 0,0.19103 0.0553,0.35692 0.0553,0.1659 0.15584,0.28655 0.10557,0.12065 0.25638,0.19102 0.15081,0.0704 0.34687,0.0704 0.22622,0 0.39211,-0.0754 0.17092,-0.0804 0.31168,-0.22622 l 0.14579,0.12568 q -0.0553,0.0653 -0.13573,0.1307 -0.0804,0.0654 -0.19103,0.12065 -0.10557,0.0503 -0.2413,0.0804 -0.13071,0.0352 -0.29157,0.0352 -0.25638,0 -0.45244,-0.0905 -0.19103,-0.0905 -0.31671,-0.2413 -0.12567,-0.15584 -0.19103,-0.3519 -0.0603,-0.20108 -0.0603,-0.41725 0,-0.19605 0.0603,-0.38206 0.0603,-0.186 0.18098,-0.33178 0.12568,-0.14579 0.31168,-0.23125 0.186,-0.0905 0.43735,-0.0905 0.2413,0 0.41222,0.0905 0.17595,0.0905 0.28655,0.23627 0.11562,0.14579 0.17092,0.33179 0.0553,0.186 0.0653,0.38206 z m 1.45786,-0.18098 q -0.0101,-0.11562 -0.0553,-0.23627 -0.0452,-0.12065 -0.13573,-0.21616 -0.0855,-0.0955 -0.21114,-0.15584 -0.12568,-0.0603 -0.29157,-0.0603 -0.17595,0 -0.31168,0.0553 -0.1307,0.0503 -0.22119,0.14579 -0.0905,0.0905 -0.14579,0.21113 -0.0553,0.12065 -0.0754,0.25638 h 1.4478 z"
         style="font-style:normal;font-variant:normal;font-weight:normal;font-stretch:normal;font-family:Nobel;-inkscape-font-specification:Nobel;stroke-width:0.264583"
         id="path912" />
      <path
         d="m 143.48127,107.31241 q 0,0.13071 -0.0654,0.2413 -0.0603,0.10557 -0.16086,0.18098 -0.0955,0.0754 -0.22622,0.11562 -0.12568,0.0452 -0.25135,0.0452 -0.19103,0 -0.38709,-0.0603 -0.19103,-0.0653 -0.31168,-0.1659 l 0.12568,-0.16086 q 0.11059,0.0855 0.26141,0.14076 0.15584,0.0553 0.31168,0.0553 0.0905,0 0.17594,-0.0302 0.0905,-0.0302 0.15584,-0.0804 0.0704,-0.0553 0.1106,-0.12568 0.0452,-0.0704 0.0452,-0.15584 0,-0.10557 -0.0452,-0.17595 -0.0453,-0.0754 -0.12568,-0.12065 -0.0754,-0.0503 -0.18097,-0.0855 -0.10054,-0.0352 -0.21617,-0.0654 -0.11059,-0.0302 -0.21616,-0.0704 -0.10557,-0.0452 -0.19103,-0.11059 -0.0804,-0.0704 -0.13071,-0.1659 -0.0503,-0.0955 -0.0503,-0.23124 0,-0.13071 0.0553,-0.22622 0.0603,-0.10054 0.15584,-0.16589 0.0955,-0.0704 0.20611,-0.10055 0.11562,-0.0352 0.23125,-0.0352 0.186,0 0.34184,0.0553 0.16087,0.0503 0.31168,0.1659 l -0.12065,0.15081 q -0.12568,-0.0955 -0.25638,-0.14076 -0.12568,-0.0452 -0.28655,-0.0452 -0.0754,0 -0.15584,0.0251 -0.0754,0.0201 -0.13573,0.0603 -0.0603,0.0402 -0.10054,0.10556 -0.0352,0.0603 -0.0352,0.14076 0,0.17595 0.13071,0.25638 0.1307,0.0804 0.35692,0.14579 0.12065,0.0352 0.2413,0.0804 0.12065,0.0402 0.21616,0.1106 0.0955,0.0653 0.15584,0.17595 0.0603,0.10557 0.0603,0.26643 z"
         style="font-style:normal;font-variant:normal;font-weight:normal;font-stretch:normal;font-family:Nobel;-inkscape-font-specification:Nobel;stroke-width:0.264583"
         id="path914" />
    </g>
    <g
       id="g3435"
       transform="translate(4.789362,-0.08352172)">
      <g
         aria-label="-.131"
         id="_-.131_"
         style="font-weight:700;font-size:4.7625px;font-family:Nobel-Bold, Nobel;fill:#cb436b;stroke-width:0.264583">
        <path
           d="m 132.17209,112.66449 v -0.1905 h 1.00012 v 0.1905 z"
           style="font-style:normal;font-variant:normal;font-weight:normal;font-stretch:normal;font-family:Nobel-Bold, Nobel;-inkscape-font-specification:'Nobel-Bold, Nobel';stroke-width:0.264583"
           id="path917" />
        <path
           d="m 133.74408,113.64556 v -0.40005 h 0.21432 v 0.40005 z"
           style="font-style:normal;font-variant:normal;font-weight:normal;font-stretch:normal;font-family:Nobel-Bold, Nobel;-inkscape-font-specification:'Nobel-Bold, Nobel';stroke-width:0.264583"
           id="path919" />
        <path
           d="m 134.57708,113.64556 v -3.06705 q -0.0905,0.13335 -0.26194,0.23336 -0.17145,0.0953 -0.34766,0.11907 v -0.1905 q 0.10001,-0.01 0.19526,-0.0619 0.10001,-0.0524 0.18574,-0.12858 0.0905,-0.081 0.15716,-0.17622 0.0667,-0.10001 0.10001,-0.20478 h 0.18574 v 3.47662 z"
           style="font-style:normal;font-variant:normal;font-weight:normal;font-stretch:normal;font-family:Nobel-Bold, Nobel;-inkscape-font-specification:'Nobel-Bold, Nobel';stroke-width:0.264583"
           id="path921" />
        <path
           d="m 137.52343,112.65496 q 0,0.23813 -0.081,0.43339 -0.0762,0.1905 -0.22383,0.32861 -0.14288,0.13811 -0.35243,0.21431 -0.20479,0.0714 -0.46672,0.0714 -0.19527,0 -0.37148,-0.0476 -0.17145,-0.0429 -0.32385,-0.11907 -0.1524,-0.0762 -0.27622,-0.17621 -0.12383,-0.10477 -0.20955,-0.22384 l 0.16192,-0.12858 q 0.1905,0.2286 0.44291,0.36195 0.25242,0.13335 0.58103,0.13335 0.1905,0 0.35242,-0.0524 0.16669,-0.0571 0.28575,-0.15716 0.12383,-0.10478 0.1905,-0.25718 0.0667,-0.1524 0.0667,-0.35242 0,-0.37148 -0.24765,-0.59055 -0.24765,-0.21908 -0.75248,-0.21908 h -0.2667 v -0.1905 h 0.25718 q 0.40957,0 0.63817,-0.18574 0.23337,-0.18573 0.23337,-0.52387 0,-0.14764 -0.0572,-0.27146 -0.0572,-0.12383 -0.16193,-0.20955 -0.10001,-0.0857 -0.23812,-0.13335 -0.13335,-0.0476 -0.29052,-0.0476 -0.29527,0 -0.50958,0.11906 -0.20955,0.11907 -0.33338,0.30004 l -0.17621,-0.10954 q 0.18574,-0.24765 0.44291,-0.37623 0.26194,-0.13335 0.59055,-0.13335 0.1905,0 0.36195,0.0619 0.17621,0.0572 0.3048,0.16669 0.13335,0.10953 0.20955,0.2667 0.081,0.1524 0.081,0.33813 0,0.30957 -0.15716,0.51912 -0.1524,0.20478 -0.42386,0.3048 0.31432,0.081 0.51435,0.31432 0.20479,0.2286 0.20479,0.5715 z"
           style="font-style:normal;font-variant:normal;font-weight:normal;font-stretch:normal;font-family:Nobel-Bold, Nobel;-inkscape-font-specification:'Nobel-Bold, Nobel';stroke-width:0.264583"
           id="path923" />
        <path
           d="m 138.41796,113.64556 v -3.06705 q -0.0905,0.13335 -0.26194,0.23336 -0.17145,0.0953 -0.34766,0.11907 v -0.1905 q 0.10001,-0.01 0.19526,-0.0619 0.10001,-0.0524 0.18574,-0.12858 0.0905,-0.081 0.15716,-0.17622 0.0667,-0.10001 0.10001,-0.20478 h 0.18574 v 3.47662 z"
           style="font-style:normal;font-variant:normal;font-weight:normal;font-stretch:normal;font-family:Nobel-Bold, Nobel;-inkscape-font-specification:'Nobel-Bold, Nobel';stroke-width:0.264583"
           id="path925" />
      </g>
      <path
         id="Arrow_9_1"
         data-name="Arrow 9 1"
         d="m 129.40799,110.17133 v 2.08782 h -0.81068 l 1.56633,1.89336 1.56633,-1.89336 h -0.81041 v -2.08782 z"
         fill="#cb436b"
         style="stroke-width:0.264583" />
    </g>
    <g
       id="g3469">
      <g
         id="Shape_1"
         data-name="Shape 1"
         transform="matrix(0.26458333,0,0,0.26458333,-747.19071,-52.70459)"
         fill="none">
        <path
           d="m 3385,605.3 3.789,-9.624 3.916,1.6 3.411,0.267 3.158,-4.545 2.147,3.743 3.537,1.337 3.663,3.208 3.284,3.208 3.158,3.743 3.284,1.871 3.157,1.6 2.021,0.535 2.653,2.139 2.147,2.406 3.79,1.871 2.526,1.6 2.147,0.535 4.548,0.535 1.894,4.01 1.9,0.8 4.548,2.406 4.547,-6.416 5.305,5.347 3.032,1.6 2.778,1.6 2.78,0.268 5.937,2.138 6.19,-3.208 4.042,-4.01 5.685,-1.069 5.432,5.881 3.536,-4.277 v 26.751 h -113.816 z"
           stroke="none"
           id="path1292" />
        <path
           d="m 3399.1943,594.86871 -2.2563,3.24677 -0.3274,0.47113 -0.572,-0.0449 -3.4109,-0.26746 -0.156,-0.0122 -0.1448,-0.0593 -2.978,-1.21967 -3.3479,8.50293 0.1228,46.66437 h 111.8186 v -22.95453 l -1.7656,2.13562 -0.729,0.88178 -0.7764,-0.84046 -5.0569,-5.47479 -4.8391,0.91034 -3.8242,3.79394 -0.1087,0.10761 -0.1355,0.0703 -6.1899,3.20789 -0.3879,0.20105 -0.4112,-0.14807 -5.8188,-2.09595 -2.6546,-0.25549 -0.2163,-0.0208 -0.188,-0.10858 -2.7619,-1.59442 -3.0161,-1.5957 -0.1348,-0.0713 -0.1074,-0.10828 -4.4673,-4.50226 -3.8596,5.44568 -0.5076,0.71619 -0.7761,-0.41058 -4.5093,-2.38599 -1.856,-0.78497 -0.3515,-0.14875 -0.1631,-0.34521 -1.6572,-3.50885 -3.9971,-0.46985 -0.063,-0.007 -0.062,-0.0153 -2.1475,-0.53466 -0.1574,-0.0393 -0.137,-0.087 -2.4807,-1.57532 -3.7417,-1.84741 -0.1741,-0.0859 -0.1294,-0.14484 -2.0928,-2.34472 -2.4233,-1.95368 -1.8154,-0.48028 -0.1026,-0.0272 -0.094,-0.048 -3.1575,-1.60388 -0.021,-0.0108 -0.021,-0.0119 -3.2844,-1.8714 -0.1545,-0.088 -0.1145,-0.13592 -3.1275,-3.70581 -3.2302,-3.15534 -3.5066,-3.07092 -3.3679,-1.27271 -0.3354,-0.12677 -0.1785,-0.31109 -1.3604,-2.37171 m 0.081,-1.86871 2.147,3.74286 3.5371,1.33667 3.6634,3.20807 3.2839,3.20788 3.1584,3.74268 3.2845,1.8714 3.1574,1.60388 2.0213,0.53479 2.6531,2.13873 2.1474,2.40601 3.7901,1.87128 2.5258,1.60394 2.1475,0.53467 4.5478,0.5346 1.8941,4.0102 1.8955,0.80175 4.5478,2.40638 4.5474,-6.4162 5.3054,5.34668 3.032,1.60406 2.7783,1.60394 2.7798,0.26752 5.9368,2.13843 6.1899,-3.20789 4.0423,-4.01007 5.6845,-1.06933 5.4324,5.88134 3.5364,-4.27728 v 26.7334 h -113.8159 l -0.126,-47.85284 3.7893,-9.62403 3.916,1.60388 3.4109,0.2674 z"
           stroke="none"
           fill="#ffffff"
           id="path1294" />
      </g>
      <g
         aria-label="+1.5"
         id="_1.5"
         style="font-weight:700;font-size:1.05833px;font-family:Nobel-Bold, Nobel;fill:#ffffff;stroke-width:0.264583">
        <path
           d="m 145.13244,104.62778 v 0.15663 h -0.127 v -0.15663 h -0.14393 v -0.12277 h 0.14393 v -0.15663 h 0.127 v 0.15663 h 0.14393 v 0.12277 z"
           style="stroke-width:0.264583"
           id="path997" />
        <path
           d="m 145.42049,104.9167 v -0.55985 q -0.008,0.007 -0.0201,0.0148 -0.0116,0.006 -0.0243,0.0127 -0.0127,0.006 -0.0243,0.0116 -0.0117,0.004 -0.0212,0.005 v -0.1323 q 0.019,-0.004 0.0392,-0.0148 0.0201,-0.0116 0.037,-0.0275 0.0169,-0.0159 0.0296,-0.037 0.0127,-0.0212 0.018,-0.0455 h 0.1143 v 0.77258 z"
           style="stroke-width:0.264583"
           id="path999" />
        <path
           d="m 145.66377,104.9167 v -0.14922 h 0.14076 v 0.14922 z"
           style="stroke-width:0.264583"
           id="path1001" />
        <path
           d="m 146.27855,104.63836 q 0,0.0593 -0.0148,0.11218 -0.0138,0.0519 -0.0413,0.0921 -0.0275,0.0402 -0.0688,0.0635 -0.0402,0.0233 -0.0931,0.0233 -0.0603,0 -0.10478,-0.0254 -0.0434,-0.0265 -0.0762,-0.0773 l 0.1016,-0.0878 q 0.007,0.0265 0.0254,0.0466 0.018,0.019 0.0423,0.019 0.0423,0 0.0593,-0.0434 0.0169,-0.0444 0.0169,-0.11324 0,-0.0222 -0.002,-0.0466 -0.001,-0.0254 -0.006,-0.0466 -0.005,-0.0212 -0.0159,-0.0349 -0.0106,-0.0148 -0.0296,-0.0148 -0.0275,0 -0.0392,0.0318 -0.0116,0.0307 -0.0137,0.072 l -0.11007,-0.0317 0.0116,-0.43286 h 0.32597 v 0.127 h -0.21167 l -0.004,0.14817 q 0.0339,-0.0402 0.09,-0.0402 0.0455,0 0.0751,0.0243 0.0307,0.0233 0.0487,0.0614 0.0191,0.037 0.0265,0.0836 0.008,0.0455 0.008,0.09 z"
           style="stroke-width:0.264583"
           id="path1003" />
      </g>
      <g
         aria-label="+1"
         id="_1"
         style="font-weight:700;font-size:0.79375px;font-family:Nobel-Bold, Nobel;fill:#ffffff;stroke-width:0.264583">
        <path
           d="m 145.03164,106.77063 v 0.11747 h -0.0953 v -0.11747 h -0.10795 v -0.0921 h 0.10795 v -0.11747 h 0.0953 v 0.11747 h 0.10795 v 0.0921 z"
           style="stroke-width:0.264583"
           id="path992" />
        <path
           d="m 145.24768,106.98732 v -0.41989 q -0.006,0.006 -0.0151,0.0111 -0.009,0.005 -0.0182,0.01 -0.01,0.005 -0.0183,0.009 -0.009,0.003 -0.0159,0.004 v -0.0992 q 0.0143,-0.003 0.0294,-0.0111 0.0151,-0.009 0.0278,-0.0206 0.0127,-0.0119 0.0222,-0.0278 0.01,-0.0159 0.0135,-0.0341 h 0.0857 v 0.57944 z"
           style="stroke-width:0.264583"
           id="path994" />
      </g>
      <g
         aria-label="+.5"
         id="_.5"
         style="font-weight:700;font-size:1.05833px;font-family:Nobel-Bold, Nobel;fill:#ffffff;stroke-width:0.264583">
        <path
           d="m 145.08218,109.2982 v 0.15663 h -0.127 v -0.15663 h -0.14393 v -0.12277 h 0.14393 v -0.15663 h 0.127 v 0.15663 h 0.14393 v 0.12277 z"
           style="stroke-width:0.264583"
           id="path985" />
        <path
           d="m 145.29932,109.58712 v -0.14922 h 0.14076 v 0.14922 z"
           style="stroke-width:0.264583"
           id="path987" />
        <path
           d="m 145.91409,109.30878 q 0,0.0593 -0.0148,0.11218 -0.0137,0.0519 -0.0413,0.0921 -0.0275,0.0402 -0.0688,0.0635 -0.0402,0.0233 -0.0931,0.0233 -0.0603,0 -0.10478,-0.0254 -0.0434,-0.0265 -0.0762,-0.0773 l 0.1016,-0.0878 q 0.007,0.0265 0.0254,0.0466 0.018,0.0191 0.0423,0.0191 0.0423,0 0.0593,-0.0434 0.0169,-0.0444 0.0169,-0.11325 0,-0.0222 -0.002,-0.0466 -0.001,-0.0254 -0.006,-0.0466 -0.005,-0.0212 -0.0159,-0.0349 -0.0106,-0.0148 -0.0296,-0.0148 -0.0275,0 -0.0392,0.0317 -0.0116,0.0307 -0.0138,0.072 l -0.11006,-0.0318 0.0116,-0.43286 h 0.32596 v 0.127 h -0.21166 l -0.004,0.14816 q 0.0339,-0.0402 0.09,-0.0402 0.0455,0 0.0751,0.0243 0.0307,0.0233 0.0487,0.0614 0.0191,0.037 0.0265,0.0836 0.008,0.0455 0.008,0.09 z"
           style="stroke-width:0.264583"
           id="path989" />
      </g>
      <g
         aria-label="0.00"
         id="_0.00"
         style="font-weight:700;font-size:1.05833px;font-family:Nobel-Bold, Nobel;fill:#ffffff;stroke-width:0.264583">
        <path
           d="m 145.23881,111.53578 q 0,0.0656 -0.0116,0.13653 -0.0106,0.0699 -0.036,0.12911 -0.0254,0.0582 -0.0667,0.0963 -0.0413,0.037 -0.10266,0.037 -0.0614,0 -0.10266,-0.037 -0.0413,-0.0381 -0.0667,-0.0963 -0.0254,-0.0593 -0.036,-0.12911 -0.0106,-0.0709 -0.0106,-0.13653 0,-0.0656 0.0106,-0.13546 0.0106,-0.0709 0.036,-0.12912 0.0254,-0.0593 0.0667,-0.0963 0.0413,-0.0381 0.10266,-0.0381 0.0614,0 0.10266,0.0381 0.0413,0.037 0.0667,0.0963 0.0254,0.0582 0.036,0.12912 0.0116,0.0699 0.0116,0.13546 z m -0.14817,0 q 0,-0.054 -0.003,-0.1016 -0.002,-0.0487 -0.01,-0.0836 -0.007,-0.036 -0.0212,-0.0571 -0.0127,-0.0212 -0.0349,-0.0212 -0.0222,0 -0.036,0.0212 -0.0127,0.0212 -0.0201,0.0571 -0.006,0.0349 -0.01,0.0836 -0.002,0.0476 -0.002,0.1016 0,0.054 0.002,0.10266 0.003,0.0476 0.01,0.0836 0.007,0.0349 0.0201,0.0561 0.0138,0.0212 0.036,0.0212 0.0222,0 0.0349,-0.0212 0.0138,-0.0212 0.0212,-0.0561 0.007,-0.036 0.01,-0.0836 0.003,-0.0487 0.003,-0.10266 z"
           style="stroke-width:0.264583"
           id="path976" />
        <path
           d="m 145.30759,111.92207 v -0.14922 h 0.14075 v 0.14922 z"
           style="stroke-width:0.264583"
           id="path978" />
        <path
           d="m 145.94988,111.53578 q 0,0.0656 -0.0117,0.13653 -0.0106,0.0699 -0.036,0.12911 -0.0254,0.0582 -0.0667,0.0963 -0.0413,0.037 -0.10266,0.037 -0.0614,0 -0.10266,-0.037 -0.0413,-0.0381 -0.0667,-0.0963 -0.0254,-0.0593 -0.036,-0.12911 -0.0106,-0.0709 -0.0106,-0.13653 0,-0.0656 0.0106,-0.13546 0.0106,-0.0709 0.036,-0.12912 0.0254,-0.0593 0.0667,-0.0963 0.0413,-0.0381 0.10266,-0.0381 0.0614,0 0.10266,0.0381 0.0413,0.037 0.0667,0.0963 0.0254,0.0582 0.036,0.12912 0.0117,0.0699 0.0117,0.13546 z m -0.14817,0 q 0,-0.054 -0.003,-0.1016 -0.002,-0.0487 -0.01,-0.0836 -0.007,-0.036 -0.0212,-0.0571 -0.0127,-0.0212 -0.0349,-0.0212 -0.0222,0 -0.036,0.0212 -0.0127,0.0212 -0.0201,0.0571 -0.006,0.0349 -0.01,0.0836 -0.002,0.0476 -0.002,0.1016 0,0.054 0.002,0.10266 0.003,0.0476 0.01,0.0836 0.007,0.0349 0.0201,0.0561 0.0137,0.0212 0.036,0.0212 0.0222,0 0.0349,-0.0212 0.0138,-0.0212 0.0212,-0.0561 0.007,-0.036 0.01,-0.0836 0.003,-0.0487 0.003,-0.10266 z"
           style="stroke-width:0.264583"
           id="path980" />
        <path
           d="m 146.43563,111.53578 q 0,0.0656 -0.0116,0.13653 -0.0106,0.0699 -0.036,0.12911 -0.0254,0.0582 -0.0667,0.0963 -0.0413,0.037 -0.10265,0.037 -0.0614,0 -0.10266,-0.037 -0.0413,-0.0381 -0.0667,-0.0963 -0.0254,-0.0593 -0.036,-0.12911 -0.0106,-0.0709 -0.0106,-0.13653 0,-0.0656 0.0106,-0.13546 0.0106,-0.0709 0.036,-0.12912 0.0254,-0.0593 0.0667,-0.0963 0.0413,-0.0381 0.10266,-0.0381 0.0614,0 0.10265,0.0381 0.0413,0.037 0.0667,0.0963 0.0254,0.0582 0.036,0.12912 0.0116,0.0699 0.0116,0.13546 z m -0.14816,0 q 0,-0.054 -0.003,-0.1016 -0.002,-0.0487 -0.01,-0.0836 -0.007,-0.036 -0.0212,-0.0571 -0.0127,-0.0212 -0.0349,-0.0212 -0.0222,0 -0.036,0.0212 -0.0127,0.0212 -0.0201,0.0571 -0.006,0.0349 -0.01,0.0836 -0.002,0.0476 -0.002,0.1016 0,0.054 0.002,0.10266 0.003,0.0476 0.01,0.0836 0.007,0.0349 0.0201,0.0561 0.0138,0.0212 0.036,0.0212 0.0222,0 0.0349,-0.0212 0.0138,-0.0212 0.0212,-0.0561 0.007,-0.036 0.01,-0.0836 0.003,-0.0487 0.003,-0.10266 z"
           style="stroke-width:0.264583"
           id="path982" />
      </g>
      <g
         aria-label="-.5"
         id="_-.5"
         style="font-weight:700;font-size:1.05833px;font-family:Nobel-Bold, Nobel;fill:#ffffff;stroke-width:0.264583">
        <path
           d="m 144.81654,114.0636 v -0.11641 h 0.1852 v 0.11641 z"
           style="stroke-width:0.264583"
           id="path969" />
        <path
           d="m 145.08021,114.25728 v -0.14923 h 0.14076 v 0.14923 z"
           style="stroke-width:0.264583"
           id="path971" />
        <path
           d="m 145.69498,113.97894 q 0,0.0593 -0.0148,0.11218 -0.0138,0.0519 -0.0413,0.0921 -0.0275,0.0402 -0.0688,0.0635 -0.0402,0.0233 -0.0931,0.0233 -0.0603,0 -0.10478,-0.0254 -0.0434,-0.0265 -0.0762,-0.0773 l 0.1016,-0.0878 q 0.007,0.0265 0.0254,0.0466 0.018,0.019 0.0423,0.019 0.0423,0 0.0593,-0.0434 0.0169,-0.0444 0.0169,-0.11324 0,-0.0222 -0.002,-0.0466 -0.001,-0.0254 -0.006,-0.0466 -0.005,-0.0212 -0.0159,-0.0349 -0.0106,-0.0148 -0.0296,-0.0148 -0.0275,0 -0.0392,0.0318 -0.0116,0.0307 -0.0138,0.072 l -0.11006,-0.0317 0.0116,-0.43285 h 0.32597 v 0.127 h -0.21167 l -0.004,0.14816 q 0.0339,-0.0402 0.0899,-0.0402 0.0455,0 0.0752,0.0243 0.0307,0.0233 0.0487,0.0614 0.0191,0.037 0.0265,0.0836 0.008,0.0455 0.008,0.09 z"
           style="stroke-width:0.264583"
           id="path973" />
      </g>
      <g
         aria-label="-1"
         id="_-1"
         style="font-weight:700;font-size:1.05833px;font-family:Nobel-Bold, Nobel;fill:#ffffff;stroke-width:0.264583">
        <path
           d="m 144.81654,116.39856 v -0.11642 h 0.1852 v 0.11642 z"
           style="stroke-width:0.264583"
           id="path964" />
        <path
           d="m 145.15112,116.59223 v -0.55985 q -0.008,0.007 -0.0201,0.0148 -0.0116,0.006 -0.0243,0.0127 -0.0127,0.006 -0.0243,0.0116 -0.0117,0.004 -0.0212,0.005 v -0.1323 q 0.019,-0.004 0.0392,-0.0148 0.0201,-0.0116 0.037,-0.0275 0.0169,-0.0159 0.0296,-0.037 0.0127,-0.0212 0.018,-0.0455 h 0.1143 v 0.77258 z"
           style="stroke-width:0.264583"
           id="path966" />
      </g>
      <g
         aria-label="-1.5"
         id="_-1.5"
         style="font-weight:700;font-size:1.05833px;font-family:Nobel-Bold, Nobel;fill:#ffffff;stroke-width:0.264583">
        <path
           d="m 144.81654,118.73376 v -0.11641 h 0.1852 v 0.11641 z"
           style="stroke-width:0.264583"
           id="path955" />
        <path
           d="m 145.15112,118.92744 v -0.55986 q -0.008,0.007 -0.0201,0.0148 -0.0116,0.006 -0.0243,0.0127 -0.0127,0.006 -0.0243,0.0116 -0.0117,0.004 -0.0212,0.005 v -0.13229 q 0.019,-0.004 0.0392,-0.0148 0.0201,-0.0116 0.037,-0.0275 0.0169,-0.0159 0.0296,-0.037 0.0127,-0.0212 0.018,-0.0455 h 0.1143 v 0.77258 z"
           style="stroke-width:0.264583"
           id="path957" />
        <path
           d="m 145.3944,118.92744 v -0.14923 h 0.14076 v 0.14923 z"
           style="stroke-width:0.264583"
           id="path959" />
        <path
           d="m 146.00918,118.6491 q 0,0.0593 -0.0148,0.11218 -0.0138,0.0519 -0.0413,0.0921 -0.0275,0.0402 -0.0688,0.0635 -0.0402,0.0233 -0.0931,0.0233 -0.0603,0 -0.10478,-0.0254 -0.0434,-0.0265 -0.0762,-0.0773 l 0.10159,-0.0878 q 0.007,0.0265 0.0254,0.0466 0.018,0.0191 0.0423,0.0191 0.0423,0 0.0593,-0.0434 0.0169,-0.0444 0.0169,-0.11324 0,-0.0222 -0.002,-0.0466 -0.001,-0.0254 -0.006,-0.0466 -0.005,-0.0212 -0.0159,-0.0349 -0.0106,-0.0148 -0.0296,-0.0148 -0.0275,0 -0.0392,0.0318 -0.0116,0.0307 -0.0138,0.072 l -0.11007,-0.0318 0.0116,-0.43285 h 0.32597 v 0.127 h -0.21167 l -0.004,0.14816 q 0.0339,-0.0402 0.09,-0.0402 0.0455,0 0.0751,0.0243 0.0307,0.0233 0.0487,0.0614 0.019,0.037 0.0265,0.0836 0.008,0.0455 0.008,0.09 z"
           style="stroke-width:0.264583"
           id="path961" />
      </g>
      <path
         id="Polygon_16"
         data-name="Polygon 16"
         d="m 184.25981,110.38351 -2.64583,1.5875 v -3.175 z"
         fill="#ffffff"
         style="stroke-width:0.264583" />
    </g>
    <g
       id="g962"
       transform="translate(6.3500003,0.08352173)">
      <g
         aria-label="Mood: Critical"
         id="Mood:_Critical"
         style="font-weight:700;font-size:4.7625px;font-family:Nobel-Bold, Nobel;fill:#ffffff;stroke-width:0.264583">
        <path
           d="m 115.67551,119.98115 v -3.17183 l -1.19062,1.84785 h -0.14288 l -1.18586,-1.83832 v 3.1623 h -0.21431 v -3.47663 h 0.25717 l 1.2192,1.89548 1.20968,-1.89548 h 0.26193 v 3.47663 z"
           style="font-style:normal;font-variant:normal;font-weight:normal;font-stretch:normal;font-family:Nobel;-inkscape-font-specification:Nobel;stroke-width:0.264583"
           id="path928" />
        <path
           d="m 118.4487,119.02389 q 0,0.22383 -0.081,0.40957 -0.0762,0.18574 -0.21431,0.32385 -0.13812,0.13335 -0.32385,0.20955 -0.18098,0.0714 -0.39053,0.0714 -0.20955,0 -0.39529,-0.0714 -0.18097,-0.0762 -0.31908,-0.20955 -0.13812,-0.13811 -0.21908,-0.32385 -0.0762,-0.18574 -0.0762,-0.40957 0,-0.22384 0.0762,-0.40958 0.081,-0.18574 0.21908,-0.31909 0.13811,-0.13335 0.31908,-0.20478 0.18574,-0.0762 0.39529,-0.0762 0.20955,0 0.39053,0.0762 0.18573,0.0714 0.32385,0.20478 0.13811,0.13335 0.21431,0.31909 0.081,0.18574 0.081,0.40958 z m -0.20479,0 q 0,-0.18098 -0.0619,-0.33338 -0.0619,-0.1524 -0.17145,-0.26194 -0.10477,-0.10953 -0.25241,-0.17145 -0.14764,-0.0619 -0.31909,-0.0619 -0.17145,0 -0.31909,0.0619 -0.14763,0.0619 -0.25717,0.17145 -0.10478,0.10954 -0.16669,0.26194 -0.0619,0.1524 -0.0619,0.33338 0,0.18097 0.0619,0.33337 0.0619,0.1524 0.16669,0.2667 0.10954,0.10954 0.25717,0.17145 0.14764,0.0619 0.31909,0.0619 0.17145,0 0.31909,-0.0619 0.14764,-0.0619 0.25241,-0.17145 0.10954,-0.1143 0.17145,-0.2667 0.0619,-0.1524 0.0619,-0.33337 z"
           style="font-style:normal;font-variant:normal;font-weight:normal;font-stretch:normal;font-family:Nobel;-inkscape-font-specification:Nobel;stroke-width:0.264583"
           id="path930" />
        <path
           d="m 120.78344,119.02389 q 0,0.22383 -0.081,0.40957 -0.0762,0.18574 -0.21431,0.32385 -0.13812,0.13335 -0.32385,0.20955 -0.18098,0.0714 -0.39053,0.0714 -0.20955,0 -0.39529,-0.0714 -0.18097,-0.0762 -0.31908,-0.20955 -0.13812,-0.13811 -0.21908,-0.32385 -0.0762,-0.18574 -0.0762,-0.40957 0,-0.22384 0.0762,-0.40958 0.081,-0.18574 0.21908,-0.31909 0.13811,-0.13335 0.31908,-0.20478 0.18574,-0.0762 0.39529,-0.0762 0.20955,0 0.39053,0.0762 0.18573,0.0714 0.32385,0.20478 0.13811,0.13335 0.21431,0.31909 0.081,0.18574 0.081,0.40958 z m -0.20479,0 q 0,-0.18098 -0.0619,-0.33338 -0.0619,-0.1524 -0.17145,-0.26194 -0.10477,-0.10953 -0.25241,-0.17145 -0.14764,-0.0619 -0.31909,-0.0619 -0.17145,0 -0.31909,0.0619 -0.14763,0.0619 -0.25717,0.17145 -0.10478,0.10954 -0.16669,0.26194 -0.0619,0.1524 -0.0619,0.33338 0,0.18097 0.0619,0.33337 0.0619,0.1524 0.16669,0.2667 0.10954,0.10954 0.25717,0.17145 0.14764,0.0619 0.31909,0.0619 0.17145,0 0.31909,-0.0619 0.14764,-0.0619 0.25241,-0.17145 0.10954,-0.1143 0.17145,-0.2667 0.0619,-0.1524 0.0619,-0.33337 z"
           style="font-style:normal;font-variant:normal;font-weight:normal;font-stretch:normal;font-family:Nobel;-inkscape-font-specification:Nobel;stroke-width:0.264583"
           id="path932" />
        <path
           d="m 122.75147,119.98115 v -0.39529 q -0.0381,0.0857 -0.1143,0.17145 -0.0762,0.081 -0.17621,0.14288 -0.10002,0.0619 -0.21908,0.10001 -0.11906,0.0381 -0.24765,0.0381 -0.20955,0 -0.37624,-0.081 -0.16668,-0.081 -0.28098,-0.21908 -0.1143,-0.13811 -0.17621,-0.31909 -0.0619,-0.18097 -0.0619,-0.381 0,-0.24288 0.0714,-0.42862 0.0762,-0.1905 0.20479,-0.32385 0.12858,-0.13335 0.30003,-0.20003 0.17145,-0.0714 0.36195,-0.0714 0.12383,0 0.23337,0.0381 0.1143,0.0381 0.20478,0.10001 0.0953,0.0619 0.16669,0.14764 0.0714,0.081 0.10954,0.16668 v -1.96215 h 0.19526 v 3.47663 z m 0,-0.96203 q 0,-0.15716 -0.0524,-0.3048 -0.0524,-0.14763 -0.1524,-0.26193 -0.0952,-0.11907 -0.23336,-0.18574 -0.13335,-0.0714 -0.29528,-0.0714 -0.32385,0 -0.51911,0.22384 -0.19526,0.21907 -0.19526,0.60484 0,0.16668 0.0429,0.31908 0.0476,0.14764 0.13335,0.26194 0.0905,0.1143 0.21908,0.18574 0.13335,0.0667 0.30956,0.0667 0.16192,0 0.29527,-0.0619 0.13812,-0.0667 0.23813,-0.18097 0.10001,-0.1143 0.1524,-0.2667 0.0571,-0.1524 0.0571,-0.32862 z"
           style="font-style:normal;font-variant:normal;font-weight:normal;font-stretch:normal;font-family:Nobel;-inkscape-font-specification:Nobel;stroke-width:0.264583"
           id="path934" />
        <path
           d="m 123.54361,118.35714 v -0.40005 h 0.21431 v 0.40005 z m 0,1.62401 v -0.40005 h 0.21431 v 0.40005 z"
           style="font-style:normal;font-variant:normal;font-weight:normal;font-stretch:normal;font-family:Nobel;-inkscape-font-specification:Nobel;stroke-width:0.264583"
           id="path936" />
        <path
           d="m 128.18838,119.42394 q -0.0905,0.10953 -0.21907,0.21907 -0.12383,0.10478 -0.28575,0.19526 -0.15716,0.0905 -0.35719,0.14288 -0.20002,0.0572 -0.44291,0.0572 -0.35243,0 -0.65723,-0.13811 -0.3048,-0.13812 -0.5334,-0.37624 -0.2286,-0.24289 -0.36195,-0.5715 -0.12858,-0.32861 -0.12858,-0.70961 0,-0.35719 0.12858,-0.68104 0.12859,-0.32385 0.35243,-0.5715 0.2286,-0.24765 0.5334,-0.39529 0.30956,-0.14764 0.66675,-0.14764 0.38576,0 0.70961,0.14764 0.32385,0.14288 0.52864,0.40005 l -0.1524,0.13811 q -0.20003,-0.2286 -0.47149,-0.35718 -0.2667,-0.12859 -0.61912,-0.12859 -0.31909,0 -0.58579,0.13335 -0.2667,0.12859 -0.46196,0.34766 -0.1905,0.21908 -0.30004,0.50483 -0.10478,0.28575 -0.10478,0.59531 0,0.3429 0.10954,0.63817 0.1143,0.29052 0.30956,0.50959 0.19527,0.21431 0.46197,0.33814 0.27146,0.12382 0.58578,0.12382 0.20003,0 0.35719,-0.0381 0.16193,-0.0381 0.30004,-0.10953 0.13811,-0.0714 0.25717,-0.17145 0.11907,-0.10002 0.23337,-0.22384 l 0.14763,0.12859 z"
           style="font-style:normal;font-variant:normal;font-weight:normal;font-stretch:normal;font-family:Nobel;-inkscape-font-specification:Nobel;fill:#cb436b;stroke-width:0.0700043"
           id="path938" />
        <path
           d="m 129.65925,118.30475 q -0.0619,-0.0571 -0.12858,-0.0857 -0.0619,-0.0333 -0.1524,-0.0333 -0.0952,0 -0.18098,0.0572 -0.0857,0.0571 -0.1524,0.14763 -0.0667,0.0905 -0.10954,0.20479 -0.0381,0.1143 -0.0381,0.22384 v 1.16205 h -0.19526 v -1.90976 h 0.19526 v 0.28575 q 0.0667,-0.13812 0.19527,-0.23813 0.12858,-0.10477 0.3048,-0.10477 0.1143,0 0.20002,0.0333 0.0905,0.0286 0.17621,0.10954 z"
           style="font-style:normal;font-variant:normal;font-weight:normal;font-stretch:normal;font-family:Nobel;-inkscape-font-specification:Nobel;fill:#cb436b;stroke-width:0.0700043"
           id="path940" />
        <path
           d="m 130.13446,117.53799 v -0.381 h 0.19526 v 0.381 z m 0,2.44316 v -1.90976 h 0.19526 v 1.90976 z"
           style="font-style:normal;font-variant:normal;font-weight:normal;font-stretch:normal;font-family:Nobel;-inkscape-font-specification:Nobel;fill:#cb436b;stroke-width:0.0700043"
           id="path942" />
        <path
           d="m 131.41974,119.98115 q -0.20002,0 -0.31432,-0.1143 -0.1143,-0.1143 -0.1143,-0.29051 v -1.3335 h -0.30004 v -0.17145 h 0.30004 v -0.89535 h 0.19526 v 0.89535 h 0.36671 v 0.17145 h -0.36671 v 1.33826 q 0,0.081 0.0619,0.15716 0.0619,0.0714 0.1905,0.0714 h 0.11906 v 0.17145 z"
           style="font-style:normal;font-variant:normal;font-weight:normal;font-stretch:normal;font-family:Nobel;-inkscape-font-specification:Nobel;fill:#cb436b;stroke-width:0.0700043"
           id="path944" />
        <path
           d="m 132.03202,117.53799 v -0.381 h 0.19526 v 0.381 z m 0,2.44316 v -1.90976 h 0.19526 v 1.90976 z"
           style="font-style:normal;font-variant:normal;font-weight:normal;font-stretch:normal;font-family:Nobel;-inkscape-font-specification:Nobel;fill:#cb436b;stroke-width:0.0700043"
           id="path946" />
        <path
           d="m 134.4603,119.56681 q -0.12859,0.20003 -0.33338,0.33814 -0.20478,0.13335 -0.48101,0.13335 -0.20479,0 -0.381,-0.0762 -0.17145,-0.081 -0.30004,-0.21908 -0.12382,-0.13811 -0.19526,-0.32385 -0.0714,-0.18573 -0.0714,-0.40005 0,-0.20955 0.0714,-0.39052 0.0714,-0.18574 0.19526,-0.31909 0.12859,-0.13811 0.30004,-0.21431 0.17145,-0.081 0.36671,-0.081 0.15717,0 0.28099,0.0333 0.12383,0.0333 0.21908,0.0857 0.0953,0.0524 0.16668,0.11906 0.0762,0.0667 0.12859,0.12859 l -0.15716,0.12382 q -0.1143,-0.14287 -0.26194,-0.22383 -0.14764,-0.0857 -0.34766,-0.0857 -0.16669,0 -0.30956,0.0667 -0.13812,0.0619 -0.23813,0.17621 -0.10001,0.10954 -0.15716,0.25717 -0.0524,0.14764 -0.0524,0.31433 0,0.17145 0.0524,0.32861 0.0571,0.1524 0.1524,0.27146 0.10001,0.1143 0.23336,0.18098 0.13335,0.0667 0.29051,0.0667 0.2286,0 0.39053,-0.10477 0.16192,-0.10478 0.28575,-0.28575 l 0.1524,0.10001 z"
           style="font-style:normal;font-variant:normal;font-weight:normal;font-stretch:normal;font-family:Nobel;-inkscape-font-specification:Nobel;fill:#cb436b;stroke-width:0.0700043"
           id="path948" />
        <path
           d="m 136.13543,119.98115 v -0.21908 q -0.12382,0.10954 -0.30003,0.19527 -0.17622,0.081 -0.40482,0.081 -0.14287,0 -0.2667,-0.0381 -0.12382,-0.0381 -0.21907,-0.1143 -0.0905,-0.0762 -0.14764,-0.18574 -0.0524,-0.1143 -0.0524,-0.26194 0,-0.33813 0.26194,-0.50006 0.26194,-0.16669 0.73819,-0.16669 h 0.39052 v -0.15716 q 0,-0.13335 -0.0476,-0.21431 -0.0476,-0.0857 -0.12383,-0.12859 -0.0762,-0.0476 -0.17621,-0.0619 -0.0952,-0.0143 -0.19526,-0.0143 -0.34766,0 -0.57626,0.13811 l -0.081,-0.16192 q 0.13335,-0.0762 0.29528,-0.1143 0.16192,-0.0429 0.36195,-0.0429 0.38576,0 0.56197,0.16192 0.17622,0.15716 0.17622,0.4191 v 1.38589 z m 0,-1.03823 h -0.37147 q -0.39053,0 -0.60484,0.1143 -0.20955,0.1143 -0.20955,0.381 0,0.20003 0.13811,0.30957 0.14288,0.10953 0.3429,0.10953 0.21432,0 0.39529,-0.0905 0.18574,-0.0905 0.30956,-0.20003 z"
           style="font-style:normal;font-variant:normal;font-weight:normal;font-stretch:normal;font-family:Nobel;-inkscape-font-specification:Nobel;fill:#cb436b;stroke-width:0.0700043"
           id="path950" />
        <path
           d="m 136.91544,119.98115 v -3.47663 h 0.19526 v 3.47663 z"
           style="font-style:normal;font-variant:normal;font-weight:normal;font-stretch:normal;font-family:Nobel;-inkscape-font-specification:Nobel;fill:#cb436b;stroke-width:0.0700043"
           id="path952" />
      </g>
    </g>
  </g>
</svg>
